{"t": 3.4372, "source": "input", "event": "note_on", "note": 76, "name": "E5", "pc": 4, "velocity": 91, "hand": "right", "channel": 0}
{"event": "auto_chord", "melody_note": 76, "melody_name": "E5", "chosen_chord": "C/G", "chosen_notes": [36, 43], "chosen_note_names": ["C2", "G2"], "pattern": [[43, 0.0, 57]], "reason": "melody+previous", "candidate_count": 1, "previous_bass_pc": null, "bass_pc": 0, "count": 1, "t": 3.4372}
{"t": 3.7614, "source": "input", "event": "note_off", "note": 76, "name": "E5", "pc": 4, "velocity": 0, "hand": "right", "channel": 0}
{"t": 3.8469, "source": "input", "event": "note_on", "note": 76, "name": "E5", "pc": 4, "velocity": 88, "hand": "right", "channel": 0}
{"t": 4.2386, "source": "input", "event": "note_on", "note": 77, "name": "F5", "pc": 5, "velocity": 90, "hand": "right", "channel": 0}
{"t": 4.2726, "source": "input", "event": "note_off", "note": 76, "name": "E5", "pc": 4, "velocity": 0, "hand": "right", "channel": 0}
{"t": 4.477, "source": "input", "event": "note_on", "note": 79, "name": "G5", "pc": 7, "velocity": 109, "hand": "right", "channel": 0}
{"t": 4.481, "source": "input", "event": "note_off", "note": 77, "name": "F5", "pc": 5, "velocity": 0, "hand": "right", "channel": 0}
{"t": 4.8753, "source": "input", "event": "note_on", "note": 77, "name": "F5", "pc": 5, "velocity": 103, "hand": "right", "channel": 0}
{"event": "auto_chord", "melody_note": 77, "melody_name": "F5", "chosen_chord": "D/A", "chosen_notes": [45, 50], "chosen_note_names": ["A2", "D3"], "pattern": [[45, 0.0, 19], [50, 0.372, 48]], "reason": "melody", "candidate_count": 4, "previous_bass_pc": 2, "bass_pc": 9, "count": 1, "t": 4.8753}
{"t": 4.9092, "source": "input", "event": "note_off", "note": 79, "name": "G5", "pc": 7, "velocity": 0, "hand": "right", "channel": 0}
{"t": 5.0577, "source": "input", "event": "note_off", "note": 77, "name": "F5", "pc": 5, "velocity": 0, "hand": "right", "channel": 0}
{"t": 5.077, "source": "input", "event": "note_on", "note": 76, "name": "E5", "pc": 4, "velocity": 109, "hand": "right", "channel": 0}
{"t": 5.4528, "source": "input", "event": "note_off", "note": 76, "name": "E5", "pc": 4, "velocity": 0, "hand": "right", "channel": 0}
{"t": 5.4565, "source": "input", "event": "note_on", "note": 74, "name": "D5", "pc": 2, "velocity": 85, "hand": "right", "channel": 0}
{"t": 6.046, "source": "input", "event": "note_off", "note": 74, "name": "D5", "pc": 2, "velocity": 0, "hand": "right", "channel": 0}
{"t": 6.046, "source": "input", "event": "note_on", "note": 72, "name": "C5", "pc": 0, "velocity": 89, "hand": "right", "channel": 0}
{"t": 6.8983, "source": "input", "event": "note_off", "note": 72, "name": "C5", "pc": 0, "velocity": 0, "hand": "right", "channel": 0}
{"t": 6.9696, "source": "input", "event": "note_on", "note": 72, "name": "C5", "pc": 0, "velocity": 84, "hand": "right", "channel": 0}
{"event": "auto_chord", "melody_note": 72, "melody_name": "C5", "chosen_chord": "E/A/B", "chosen_notes": [45, 52, 57, 59], "chosen_note_names": ["A2", "E3", "A3", "B3"], "pattern": [[45, 0.0, 72], [52, 0.413, 69], [57, 0.829, 66], [59, 1.045, 81]], "reason": "melody+previous", "candidate_count": 7, "previous_bass_pc": 9, "bass_pc": 9, "count": 1, "t": 6.9696}
{"t": 7.0607, "source": "input", "event": "note_off", "note": 72, "name": "C5", "pc": 0, "velocity": 0, "hand": "right", "channel": 0}
{"t": 7.1812, "source": "input", "event": "note_on", "note": 72, "name": "C5", "pc": 0, "velocity": 86, "hand": "right", "channel": 0}
{"t": 7.3651, "source": "input", "event": "note_off", "note": 72, "name": "C5", "pc": 0, "velocity": 0, "hand": "right", "channel": 0}
{"t": 7.3692, "source": "input", "event": "note_on", "note": 74, "name": "D5", "pc": 2, "velocity": 71, "hand": "right", "channel": 0}
{"t": 7.5811, "source": "input", "event": "note_on", "note": 76, "name": "E5", "pc": 4, "velocity": 84, "hand": "right", "channel": 0}
{"t": 7.5927, "source": "input", "event": "note_off", "note": 74, "name": "D5", "pc": 2, "velocity": 0, "hand": "right", "channel": 0}
{"t": 7.9512, "source": "input", "event": "note_on", "note": 74, "name": "D5", "pc": 2, "velocity": 97, "hand": "right", "channel": 0}
{"t": 7.9923, "source": "input", "event": "note_off", "note": 76, "name": "E5", "pc": 4, "velocity": 0, "hand": "right", "channel": 0}
{"t": 8.1533, "source": "input", "event": "note_on", "note": 72, "name": "C5", "pc": 0, "velocity": 95, "hand": "right", "channel": 0}
{"t": 8.1609, "source": "input", "event": "note_off", "note": 74, "name": "D5", "pc": 2, "velocity": 0, "hand": "right", "channel": 0}
{"t": 8.5334, "source": "input", "event": "note_on", "note": 71, "name": "B4", "pc": 11, "velocity": 79, "hand": "right", "channel": 0}
{"event": "auto_chord", "melody_note": 71, "melody_name": "B4", "chosen_chord": "D/E/A", "chosen_notes": [40, 45, 50], "chosen_note_names": ["E2", "A2", "D3"], "pattern": [[40, 0.0, 66]], "reason": "melody+previous", "candidate_count": 1, "previous_bass_pc": 9, "bass_pc": 4, "count": 1, "t": 8.5334}
{"t": 8.541, "source": "input", "event": "note_off", "note": 72, "name": "C5", "pc": 0, "velocity": 0, "hand": "right", "channel": 0}
{"t": 9.0665, "source": "input", "event": "note_on", "note": 69, "name": "A4", "pc": 9, "velocity": 89, "hand": "right", "channel": 0}
{"t": 9.0959, "source": "input", "event": "note_off", "note": 71, "name": "B4", "pc": 11, "velocity": 0, "hand": "right", "channel": 0}
{"t": 10.4882, "source": "input", "event": "note_on", "note": 67, "name": "G4", "pc": 7, "velocity": 89, "hand": "right", "channel": 0}
{"event": "auto_chord", "melody_note": 67, "melody_name": "G4", "chosen_chord": "E/B", "chosen_notes": [40, 47, 52], "chosen_note_names": ["E2", "B2", "E3"], "pattern": [[52, 0.0, 78]], "reason": "melody+previous", "candidate_count": 2, "previous_bass_pc": 4, "bass_pc": 4, "count": 1, "t": 10.4882}
{"t": 10.5182, "source": "input", "event": "note_off", "note": 69, "name": "A4", "pc": 9, "velocity": 0, "hand": "right", "channel": 0}
{"t": 10.9688, "source": "input", "event": "note_off", "note": 67, "name": "G4", "pc": 7, "velocity": 0, "hand": "right", "channel": 0}
{"t": 11.0951, "source": "input", "event": "note_on", "note": 67, "name": "G4", "pc": 7, "velocity": 80, "hand": "right", "channel": 0}
{"t": 11.2846, "source": "input", "event": "note_on", "note": 69, "name": "A4", "pc": 9, "velocity": 84, "hand": "right", "channel": 0}
{"t": 11.3036, "source": "input", "event": "note_off", "note": 67, "name": "G4", "pc": 7, "velocity": 0, "hand": "right", "channel": 0}
{"t": 11.4756, "source": "input", "event": "note_on", "note": 71, "name": "B4", "pc": 11, "velocity": 78, "hand": "right", "channel": 0}
{"t": 11.4935, "source": "input", "event": "note_off", "note": 69, "name": "A4", "pc": 9, "velocity": 0, "hand": "right", "channel": 0}
{"t": 12.1174, "source": "input", "event": "note_off", "note": 71, "name": "B4", "pc": 11, "velocity": 0, "hand": "right", "channel": 0}
{"t": 12.1699, "source": "input", "event": "note_on", "note": 62, "name": "D4", "pc": 2, "velocity": 42, "hand": "right", "channel": 0}
{"event": "auto_chord", "melody_note": 62, "melody_name": "D4", "chosen_chord": "E/B", "chosen_notes": [47, 52], "chosen_note_names": ["B2", "E3"], "pattern": [[47, 0.0, 50], [52, 0.363, 60]], "reason": "melody+previous", "candidate_count": 3, "previous_bass_pc": 4, "bass_pc": 11, "count": 1, "t": 12.1699}
{"t": 12.4433, "source": "input", "event": "note_off", "note": 62, "name": "D4", "pc": 2, "velocity": 0, "hand": "right", "channel": 0}
{"t": 12.5613, "source": "input", "event": "note_on", "note": 64, "name": "E4", "pc": 4, "velocity": 92, "hand": "right", "channel": 0}
{"t": 13.1051, "source": "input", "event": "note_on", "note": 69, "name": "A4", "pc": 9, "velocity": 83, "hand": "right", "channel": 0}
{"t": 13.1167, "source": "input", "event": "note_off", "note": 64, "name": "E4", "pc": 4, "velocity": 0, "hand": "right", "channel": 0}
{"t": 13.2804, "source": "input", "event": "note_on", "note": 71, "name": "B4", "pc": 11, "velocity": 78, "hand": "right", "channel": 0}
{"t": 13.3286, "source": "input", "event": "note_off", "note": 69, "name": "A4", "pc": 9, "velocity": 0, "hand": "right", "channel": 0}
{"t": 13.4623, "source": "input", "event": "note_on", "note": 72, "name": "C5", "pc": 0, "velocity": 84, "hand": "right", "channel": 0}
{"event": "auto_chord", "melody_note": 72, "melody_name": "C5", "chosen_chord": "E/A", "chosen_notes": [45, 52], "chosen_note_names": ["A2", "E3"], "pattern": [[52, 0.0, 48]], "reason": "melody+previous", "candidate_count": 1, "previous_bass_pc": 11, "bass_pc": 9, "count": 1, "t": 13.4623}
{"t": 13.5157, "source": "input", "event": "note_off", "note": 71, "name": "B4", "pc": 11, "velocity": 0, "hand": "right", "channel": 0}
{"t": 13.5607, "source": "input", "event": "note_off", "note": 72, "name": "C5", "pc": 0, "velocity": 0, "hand": "right", "channel": 0}
{"t": 13.6581, "source": "input", "event": "note_on", "note": 74, "name": "D5", "pc": 2, "velocity": 96, "hand": "right", "channel": 0}
{"t": 13.8371, "source": "input", "event": "note_on", "note": 72, "name": "C5", "pc": 0, "velocity": 72, "hand": "right", "channel": 0}
{"t": 13.8371, "source": "input", "event": "note_off", "note": 74, "name": "D5", "pc": 2, "velocity": 0, "hand": "right", "channel": 0}
{"t": 14.0817, "source": "input", "event": "note_on", "note": 71, "name": "B4", "pc": 11, "velocity": 84, "hand": "right", "channel": 0}
{"t": 14.1041, "source": "input", "event": "note_off", "note": 72, "name": "C5", "pc": 0, "velocity": 0, "hand": "right", "channel": 0}
{"t": 14.6093, "source": "input", "event": "note_on", "note": 72, "name": "C5", "pc": 0, "velocity": 77, "hand": "right", "channel": 0}
{"t": 14.6209, "source": "input", "event": "note_off", "note": 71, "name": "B4", "pc": 11, "velocity": 0, "hand": "right", "channel": 0}
{"t": 15.1616, "source": "input", "event": "note_on", "note": 74, "name": "D5", "pc": 2, "velocity": 63, "hand": "right", "channel": 0}
{"event": "auto_chord", "melody_note": 74, "melody_name": "D5", "chosen_chord": "E/A", "chosen_notes": [52, 57], "chosen_note_names": ["E3", "A3"], "pattern": [[52, 0.0, 42], [57, 0.411, 75]], "reason": "melody+previous", "candidate_count": 6, "previous_bass_pc": 9, "bass_pc": 4, "count": 1, "t": 15.1616}
{"t": 15.2196, "source": "input", "event": "note_off", "note": 72, "name": "C5", "pc": 0, "velocity": 0, "hand": "right", "channel": 0}
{"t": 15.357, "source": "input", "event": "note_on", "note": 76, "name": "E5", "pc": 4, "velocity": 82, "hand": "right", "channel": 0}
{"t": 15.3988, "source": "input", "event": "note_off", "note": 74, "name": "D5", "pc": 2, "velocity": 0, "hand": "right", "channel": 0}
{"t": 15.4513, "source": "input", "event": "note_off", "note": 76, "name": "E5", "pc": 4, "velocity": 0, "hand": "right", "channel": 0}
{"t": 15.5898, "source": "input", "event": "note_on", "note": 77, "name": "F5", "pc": 5, "velocity": 72, "hand": "right", "channel": 0}
{"t": 16.4097, "source": "input", "event": "note_on", "note": 74, "name": "D5", "pc": 2, "velocity": 79, "hand": "right", "channel": 0}
{"event": "auto_chord", "melody_note": 74, "melody_name": "D5", "chosen_chord": "E/B", "chosen_notes": [47, 52], "chosen_note_names": ["B2", "E3"], "pattern": [[47, 0.0, 50], [52, 0.363, 60]], "reason": "melody+previous", "candidate_count": 3, "previous_bass_pc": 4, "bass_pc": 11, "count": 1, "t": 16.4097}
{"t": 16.4179, "source": "input", "event": "note_off", "note": 77, "name": "F5", "pc": 5, "velocity": 0, "hand": "right", "channel": 0}
{"t": 16.6144, "source": "input", "event": "note_on", "note": 77, "name": "F5", "pc": 5, "velocity": 82, "hand": "right", "channel": 0}
{"t": 16.6248, "source": "input", "event": "note_off", "note": 74, "name": "D5", "pc": 2, "velocity": 0, "hand": "right", "channel": 0}
{"t": 17.056, "source": "input", "event": "note_off", "note": 77, "name": "F5", "pc": 5, "velocity": 0, "hand": "right", "channel": 0}
{"t": 17.0714, "source": "input", "event": "note_on", "note": 76, "name": "E5", "pc": 4, "velocity": 82, "hand": "right", "channel": 0}
{"t": 17.4681, "source": "input", "event": "note_on", "note": 74, "name": "D5", "pc": 2, "velocity": 61, "hand": "right", "channel": 0}
{"t": 17.4792, "source": "input", "event": "note_off", "note": 76, "name": "E5", "pc": 4, "velocity": 0, "hand": "right", "channel": 0}
{"t": 17.6411, "source": "input", "event": "note_off", "note": 74, "name": "D5", "pc": 2, "velocity": 0, "hand": "right", "channel": 0}
{"t": 17.6488, "source": "input", "event": "note_on", "note": 76, "name": "E5", "pc": 4, "velocity": 65, "hand": "right", "channel": 0}
{"event": "auto_chord", "melody_note": 76, "melody_name": "E5", "chosen_chord": "E/A", "chosen_notes": [52, 57], "chosen_note_names": ["E3", "A3"], "pattern": [[52, 0.0, 42], [57, 0.411, 75]], "reason": "melody", "candidate_count": 14, "previous_bass_pc": 9, "bass_pc": 4, "count": 1, "t": 17.6488}
{"t": 18.0603, "source": "input", "event": "note_on", "note": 77, "name": "F5", "pc": 5, "velocity": 77, "hand": "right", "channel": 0}
{"t": 18.0826, "source": "input", "event": "note_off", "note": 76, "name": "E5", "pc": 4, "velocity": 0, "hand": "right", "channel": 0}
{"t": 18.2592, "source": "input", "event": "note_on", "note": 76, "name": "E5", "pc": 4, "velocity": 73, "hand": "right", "channel": 0}
{"t": 18.3119, "source": "input", "event": "note_off", "note": 77, "name": "F5", "pc": 5, "velocity": 0, "hand": "right", "channel": 0}
{"t": 18.4532, "source": "input", "event": "note_on", "note": 74, "name": "D5", "pc": 2, "velocity": 57, "hand": "right", "channel": 0}
{"t": 18.4648, "source": "input", "event": "note_off", "note": 76, "name": "E5", "pc": 4, "velocity": 0, "hand": "right", "channel": 0}
{"t": 18.6253, "source": "input", "event": "note_off", "note": 74, "name": "D5", "pc": 2, "velocity": 0, "hand": "right", "channel": 0}
{"t": 18.6445, "source": "input", "event": "note_on", "note": 76, "name": "E5", "pc": 4, "velocity": 73, "hand": "right", "channel": 0}
{"t": 19.1885, "source": "input", "event": "note_off", "note": 76, "name": "E5", "pc": 4, "velocity": 0, "hand": "right", "channel": 0}
{"t": 19.4719, "source": "input", "event": "note_on", "note": 76, "name": "E5", "pc": 4, "velocity": 101, "hand": "right", "channel": 0}
{"event": "auto_chord", "melody_note": 76, "melody_name": "E5", "chosen_chord": "C/G", "chosen_notes": [36, 43], "chosen_note_names": ["C2", "G2"], "pattern": [[36, 0.0, 89], [43, 0.417, 85]], "reason": "melody+previous", "candidate_count": 7, "previous_bass_pc": 4, "bass_pc": 0, "count": 1, "t": 19.4719}
{"t": 19.5929, "source": "input", "event": "note_off", "note": 76, "name": "E5", "pc": 4, "velocity": 0, "hand": "right", "channel": 0}
{"t": 19.7408, "source": "input", "event": "note_on", "note": 76, "name": "E5", "pc": 4, "velocity": 102, "hand": "right", "channel": 0}
{"t": 20.0902, "source": "input", "event": "note_on", "note": 77, "name": "F5", "pc": 5, "velocity": 86, "hand": "right", "channel": 0}
{"t": 20.098, "source": "input", "event": "note_off", "note": 76, "name": "E5", "pc": 4, "velocity": 0, "hand": "right", "channel": 0}
{"t": 20.2858, "source": "input", "event": "note_off", "note": 77, "name": "F5", "pc": 5, "velocity": 0, "hand": "right", "channel": 0}
{"t": 20.3122, "source": "input", "event": "note_on", "note": 79, "name": "G5", "pc": 7, "velocity": 114, "hand": "right", "channel": 0}
{"t": 20.7032, "source": "input", "event": "note_on", "note": 77, "name": "F5", "pc": 5, "velocity": 117, "hand": "right", "channel": 0}
{"event": "auto_chord", "melody_note": 77, "melody_name": "F5", "chosen_chord": "D/A", "chosen_notes": [45, 50], "chosen_note_names": ["A2", "D3"], "pattern": [[45, 0.0, 19], [50, 0.372, 48]], "reason": "melody", "candidate_count": 4, "previous_bass_pc": 2, "bass_pc": 9, "count": 1, "t": 20.7032}
{"t": 20.7439, "source": "input", "event": "note_off", "note": 79, "name": "G5", "pc": 7, "velocity": 0, "hand": "right", "channel": 0}
{"t": 20.8925, "source": "input", "event": "note_off", "note": 77, "name": "F5", "pc": 5, "velocity": 0, "hand": "right", "channel": 0}
{"t": 20.9041, "source": "input", "event": "note_on", "note": 76, "name": "E5", "pc": 4, "velocity": 114, "hand": "right", "channel": 0}
{"t": 21.2663, "source": "input", "event": "note_off", "note": 76, "name": "E5", "pc": 4, "velocity": 0, "hand": "right", "channel": 0}
{"t": 21.2737, "source": "input", "event": "note_on", "note": 74, "name": "D5", "pc": 2, "velocity": 89, "hand": "right", "channel": 0}
{"t": 21.8859, "source": "input", "event": "note_on", "note": 72, "name": "C5", "pc": 0, "velocity": 93, "hand": "right", "channel": 0}
{"t": 21.8859, "source": "input", "event": "note_off", "note": 74, "name": "D5", "pc": 2, "velocity": 0, "hand": "right", "channel": 0}
{"t": 22.6671, "source": "input", "event": "note_off", "note": 72, "name": "C5", "pc": 0, "velocity": 0, "hand": "right", "channel": 0}
{"t": 22.7735, "source": "input", "event": "note_on", "note": 72, "name": "C5", "pc": 0, "velocity": 76, "hand": "right", "channel": 0}
{"event": "auto_chord", "melody_note": 72, "melody_name": "C5", "chosen_chord": "E/A/B", "chosen_notes": [45, 52, 57, 59], "chosen_note_names": ["A2", "E3", "A3", "B3"], "pattern": [[45, 0.0, 72], [52, 0.413, 69], [57, 0.829, 66], [59, 1.045, 81]], "reason": "melody+previous", "candidate_count": 7, "previous_bass_pc": 9, "bass_pc": 9, "count": 1, "t": 22.7735}
{"t": 22.8771, "source": "input", "event": "note_off", "note": 72, "name": "C5", "pc": 0, "velocity": 0, "hand": "right", "channel": 0}
{"t": 22.9633, "source": "input", "event": "note_on", "note": 72, "name": "C5", "pc": 0, "velocity": 86, "hand": "right", "channel": 0}
{"t": 23.1483, "source": "input", "event": "note_on", "note": 74, "name": "D5", "pc": 2, "velocity": 73, "hand": "right", "channel": 0}
{"t": 23.1599, "source": "input", "event": "note_off", "note": 72, "name": "C5", "pc": 0, "velocity": 0, "hand": "right", "channel": 0}
{"t": 23.3371, "source": "input", "event": "note_on", "note": 76, "name": "E5", "pc": 4, "velocity": 96, "hand": "right", "channel": 0}
{"t": 23.3411, "source": "input", "event": "note_off", "note": 74, "name": "D5", "pc": 2, "velocity": 0, "hand": "right", "channel": 0}
{"t": 23.7139, "source": "input", "event": "note_on", "note": 74, "name": "D5", "pc": 2, "velocity": 110, "hand": "right", "channel": 0}
{"t": 23.7627, "source": "input", "event": "note_off", "note": 76, "name": "E5", "pc": 4, "velocity": 0, "hand": "right", "channel": 0}
{"t": 23.8989, "source": "input", "event": "note_off", "note": 74, "name": "D5", "pc": 2, "velocity": 0, "hand": "right", "channel": 0}
{"t": 23.8989, "source": "input", "event": "note_on", "note": 72, "name": "C5", "pc": 0, "velocity": 109, "hand": "right", "channel": 0}
{"t": 24.2328, "source": "input", "event": "note_off", "note": 72, "name": "C5", "pc": 0, "velocity": 0, "hand": "right", "channel": 0}
{"t": 24.2482, "source": "input", "event": "note_on", "note": 71, "name": "B4", "pc": 11, "velocity": 87, "hand": "right", "channel": 0}
{"event": "auto_chord", "melody_note": 71, "melody_name": "B4", "chosen_chord": "D/E/A", "chosen_notes": [40, 45, 50], "chosen_note_names": ["E2", "A2", "D3"], "pattern": [[40, 0.0, 66]], "reason": "melody+previous", "candidate_count": 1, "previous_bass_pc": 9, "bass_pc": 4, "count": 1, "t": 24.2482}
{"t": 24.8093, "source": "input", "event": "note_on", "note": 69, "name": "A4", "pc": 9, "velocity": 94, "hand": "right", "channel": 0}
{"t": 24.8247, "source": "input", "event": "note_off", "note": 71, "name": "B4", "pc": 11, "velocity": 0, "hand": "right", "channel": 0}
{"t": 26.2061, "source": "input", "event": "note_on", "note": 67, "name": "G4", "pc": 7, "velocity": 85, "hand": "right", "channel": 0}
{"event": "auto_chord", "melody_note": 67, "melody_name": "G4", "chosen_chord": "E/B", "chosen_notes": [40, 47, 52], "chosen_note_names": ["E2", "B2", "E3"], "pattern": [[52, 0.0, 78]], "reason": "melody+previous", "candidate_count": 2, "previous_bass_pc": 4, "bass_pc": 4, "count": 1, "t": 26.2061}
{"t": 26.2519, "source": "input", "event": "note_off", "note": 69, "name": "A4", "pc": 9, "velocity": 0, "hand": "right", "channel": 0}
{"t": 26.6747, "source": "input", "event": "note_off", "note": 67, "name": "G4", "pc": 7, "velocity": 0, "hand": "right", "channel": 0}
{"t": 26.8275, "source": "input", "event": "note_on", "note": 67, "name": "G4", "pc": 7, "velocity": 79, "hand": "right", "channel": 0}
{"t": 27.0271, "source": "input", "event": "note_off", "note": 67, "name": "G4", "pc": 7, "velocity": 0, "hand": "right", "channel": 0}
{"t": 27.0271, "source": "input", "event": "note_on", "note": 69, "name": "A4", "pc": 9, "velocity": 64, "hand": "right", "channel": 0}
{"t": 27.2136, "source": "input", "event": "note_on", "note": 71, "name": "B4", "pc": 11, "velocity": 85, "hand": "right", "channel": 0}
{"t": 27.2771, "source": "input", "event": "note_off", "note": 69, "name": "A4", "pc": 9, "velocity": 0, "hand": "right", "channel": 0}
{"t": 27.7701, "source": "input", "event": "note_off", "note": 71, "name": "B4", "pc": 11, "velocity": 0, "hand": "right", "channel": 0}
{"t": 27.793, "source": "input", "event": "note_on", "note": 64, "name": "E4", "pc": 4, "velocity": 79, "hand": "right", "channel": 0}
{"event": "auto_chord", "melody_note": 64, "melody_name": "E4", "chosen_chord": "C/G", "chosen_notes": [36, 43], "chosen_note_names": ["C2", "G2"], "pattern": [[36, 0.0, 89], [43, 0.417, 85]], "reason": "melody+previous", "candidate_count": 7, "previous_bass_pc": 4, "bass_pc": 0, "count": 1, "t": 27.793}
{"t": 28.3664, "source": "input", "event": "note_on", "note": 69, "name": "A4", "pc": 9, "velocity": 67, "hand": "right", "channel": 0}
{"t": 28.4185, "source": "input", "event": "note_off", "note": 64, "name": "E4", "pc": 4, "velocity": 0, "hand": "right", "channel": 0}
{"t": 28.5267, "source": "input", "event": "note_off", "note": 69, "name": "A4", "pc": 9, "velocity": 0, "hand": "right", "channel": 0}
{"t": 28.5309, "source": "input", "event": "note_on", "note": 71, "name": "B4", "pc": 11, "velocity": 64, "hand": "right", "channel": 0}
{"t": 28.7307, "source": "input", "event": "note_on", "note": 72, "name": "C5", "pc": 0, "velocity": 88, "hand": "right", "channel": 0}
{"t": 28.7987, "source": "input", "event": "note_off", "note": 71, "name": "B4", "pc": 11, "velocity": 0, "hand": "right", "channel": 0}
{"t": 28.8475, "source": "input", "event": "note_off", "note": 72, "name": "C5", "pc": 0, "velocity": 0, "hand": "right", "channel": 0}
{"t": 28.9564, "source": "input", "event": "note_on", "note": 74, "name": "D5", "pc": 2, "velocity": 94, "hand": "right", "channel": 0}
{"t": 29.1369, "source": "input", "event": "note_off", "note": 74, "name": "D5", "pc": 2, "velocity": 0, "hand": "right", "channel": 0}
{"t": 29.1553, "source": "input", "event": "note_on", "note": 72, "name": "C5", "pc": 0, "velocity": 53, "hand": "right", "channel": 0}
{"event": "auto_chord", "melody_note": 72, "melody_name": "C5", "chosen_chord": "C/A", "chosen_notes": [45, 48], "chosen_note_names": ["A2", "C3"], "pattern": [[45, 0.0, 72]], "reason": "melody+previous", "candidate_count": 2, "previous_bass_pc": 0, "bass_pc": 9, "count": 1, "t": 29.1553}
{"t": 29.1595, "source": "input", "event": "note_on", "note": 74, "name": "D5", "pc": 2, "velocity": 79, "hand": "right", "channel": 0}
{"t": 29.2566, "source": "input", "event": "note_off", "note": 74, "name": "D5", "pc": 2, "velocity": 0, "hand": "right", "channel": 0}
{"t": 29.4222, "source": "input", "event": "note_on", "note": 71, "name": "B4", "pc": 11, "velocity": 98, "hand": "right", "channel": 0}
{"t": 29.452, "source": "input", "event": "note_off", "note": 72, "name": "C5", "pc": 0, "velocity": 0, "hand": "right", "channel": 0}
{"t": 30.0506, "source": "input", "event": "note_on", "note": 72, "name": "C5", "pc": 0, "velocity": 91, "hand": "right", "channel": 0}
{"t": 30.0622, "source": "input", "event": "note_off", "note": 71, "name": "B4", "pc": 11, "velocity": 0, "hand": "right", "channel": 0}
{"t": 30.6593, "source": "input", "event": "note_on", "note": 74, "name": "D5", "pc": 2, "velocity": 78, "hand": "right", "channel": 0}
{"event": "auto_chord", "melody_note": 74, "melody_name": "D5", "chosen_chord": "E/A", "chosen_notes": [52, 57], "chosen_note_names": ["E3", "A3"], "pattern": [[52, 0.0, 42], [57, 0.411, 75]], "reason": "melody+previous", "candidate_count": 6, "previous_bass_pc": 9, "bass_pc": 4, "count": 1, "t": 30.6593}
{"t": 30.7166, "source": "input", "event": "note_off", "note": 72, "name": "C5", "pc": 0, "velocity": 0, "hand": "right", "channel": 0}
{"t": 30.8524, "source": "input", "event": "note_on", "note": 76, "name": "E5", "pc": 4, "velocity": 91, "hand": "right", "channel": 0}
{"t": 30.8792, "source": "input", "event": "note_off", "note": 74, "name": "D5", "pc": 2, "velocity": 0, "hand": "right", "channel": 0}
{"t": 31.0657, "source": "input", "event": "note_off", "note": 76, "name": "E5", "pc": 4, "velocity": 0, "hand": "right", "channel": 0}
{"t": 31.0697, "source": "input", "event": "note_on", "note": 74, "name": "D5", "pc": 2, "velocity": 92, "hand": "right", "channel": 0}
{"t": 32.2533, "source": "input", "event": "note_off", "note": 74, "name": "D5", "pc": 2, "velocity": 0, "hand": "right", "channel": 0}
{"t": 32.2574, "source": "input", "event": "note_on", "note": 71, "name": "B4", "pc": 11, "velocity": 79, "hand": "right", "channel": 0}
{"event": "auto_chord", "melody_note": 71, "melody_name": "B4", "chosen_chord": "E/B", "chosen_notes": [47, 52], "chosen_note_names": ["B2", "E3"], "pattern": [[47, 0.0, 53], [52, 0.415, 79]], "reason": "melody+previous", "candidate_count": 5, "previous_bass_pc": 4, "bass_pc": 11, "count": 1, "t": 32.2574}
{"t": 32.4456, "source": "input", "event": "note_on", "note": 69, "name": "A4", "pc": 9, "velocity": 70, "hand": "right", "channel": 0}
{"t": 32.4648, "source": "input", "event": "note_off", "note": 71, "name": "B4", "pc": 11, "velocity": 0, "hand": "right", "channel": 0}
{"t": 32.6642, "source": "input", "event": "note_on", "note": 71, "name": "B4", "pc": 11, "velocity": 82, "hand": "right", "channel": 0}
{"t": 32.7056, "source": "input", "event": "note_off", "note": 69, "name": "A4", "pc": 9, "velocity": 0, "hand": "right", "channel": 0}
{"t": 33.0576, "source": "input", "event": "note_on", "note": 69, "name": "A4", "pc": 9, "velocity": 75, "hand": "right", "channel": 0}
{"t": 33.0762, "source": "input", "event": "note_off", "note": 71, "name": "B4", "pc": 11, "velocity": 0, "hand": "right", "channel": 0}
{"t": 33.2739, "source": "input", "event": "note_on", "note": 67, "name": "G4", "pc": 7, "velocity": 61, "hand": "right", "channel": 0}
{"t": 33.3229, "source": "input", "event": "note_off", "note": 69, "name": "A4", "pc": 9, "velocity": 0, "hand": "right", "channel": 0}
{"t": 33.6488, "source": "input", "event": "note_on", "note": 69, "name": "A4", "pc": 9, "velocity": 70, "hand": "right", "channel": 0}
{"event": "auto_chord", "melody_note": 69, "melody_name": "A4", "chosen_chord": "E/F/B", "chosen_notes": [41, 47, 52], "chosen_note_names": ["F2", "B2", "E3"], "pattern": [[41, 0.0, 74]], "reason": "melody+previous", "candidate_count": 1, "previous_bass_pc": 11, "bass_pc": 5, "count": 1, "t": 33.6488}
{"t": 33.7279, "source": "input", "event": "note_off", "note": 67, "name": "G4", "pc": 7, "velocity": 0, "hand": "right", "channel": 0}
{"t": 34.0391, "source": "input", "event": "note_on", "note": 67, "name": "G4", "pc": 7, "velocity": 49, "hand": "right", "channel": 0}
{"t": 34.0881, "source": "input", "event": "note_off", "note": 69, "name": "A4", "pc": 9, "velocity": 0, "hand": "right", "channel": 0}
{"t": 34.2496, "source": "input", "event": "note_on", "note": 69, "name": "A4", "pc": 9, "velocity": 82, "hand": "right", "channel": 0}
{"t": 34.2641, "source": "input", "event": "note_off", "note": 67, "name": "G4", "pc": 7, "velocity": 0, "hand": "right", "channel": 0}
{"t": 35.3507, "source": "input", "event": "note_off", "note": 69, "name": "A4", "pc": 9, "velocity": 0, "hand": "right", "channel": 0}
