{"t": 1.7193, "source": "input", "event": "note_on", "note": 64, "name": "E4", "pc": 4, "velocity": 50, "hand": "right", "channel": 0}
{"t": 1.9969, "source": "input", "event": "note_off", "note": 64, "name": "E4", "pc": 4, "velocity": 0, "hand": "right", "channel": 0}
{"t": 2.0162, "source": "input", "event": "note_on", "note": 65, "name": "F4", "pc": 5, "velocity": 62, "hand": "right", "channel": 0}
{"t": 2.2664, "source": "input", "event": "note_off", "note": 65, "name": "F4", "pc": 5, "velocity": 0, "hand": "right", "channel": 0}
{"t": 2.2893, "source": "input", "event": "note_on", "note": 64, "name": "E4", "pc": 4, "velocity": 68, "hand": "right", "channel": 0}
{"t": 2.5173, "source": "input", "event": "note_off", "note": 64, "name": "E4", "pc": 4, "velocity": 0, "hand": "right", "channel": 0}
{"t": 2.5366, "source": "input", "event": "note_on", "note": 65, "name": "F4", "pc": 5, "velocity": 48, "hand": "right", "channel": 0}
{"t": 2.7857, "source": "input", "event": "note_on", "note": 67, "name": "G4", "pc": 7, "velocity": 67, "hand": "right", "channel": 0}
{"t": 2.8044, "source": "input", "event": "note_off", "note": 65, "name": "F4", "pc": 5, "velocity": 0, "hand": "right", "channel": 0}
{"t": 2.8269, "source": "input", "event": "note_on", "note": 36, "name": "C2", "pc": 0, "velocity": 50, "hand": "left", "channel": 0}
{"t": 3.285, "source": "input", "event": "note_on", "note": 65, "name": "F4", "pc": 5, "velocity": 69, "hand": "right", "channel": 0}
{"t": 3.2964, "source": "input", "event": "note_on", "note": 43, "name": "G2", "pc": 7, "velocity": 66, "hand": "left", "channel": 0}
{"t": 3.3004, "source": "input", "event": "note_off", "note": 67, "name": "G4", "pc": 7, "velocity": 0, "hand": "right", "channel": 0}
{"t": 3.4677, "source": "input", "event": "note_off", "note": 65, "name": "F4", "pc": 5, "velocity": 0, "hand": "right", "channel": 0}
{"t": 3.5162, "source": "input", "event": "note_on", "note": 64, "name": "E4", "pc": 4, "velocity": 47, "hand": "right", "channel": 0}
{"t": 3.8275, "source": "input", "event": "note_on", "note": 48, "name": "C3", "pc": 0, "velocity": 37, "hand": "left", "channel": 0}
{"t": 4.0261, "source": "input", "event": "note_off", "note": 64, "name": "E4", "pc": 4, "velocity": 0, "hand": "right", "channel": 0}
{"t": 4.0415, "source": "input", "event": "note_on", "note": 62, "name": "D4", "pc": 2, "velocity": 69, "hand": "right", "channel": 0}
{"t": 4.3496, "source": "input", "event": "note_off", "note": 36, "name": "C2", "pc": 0, "velocity": 0, "hand": "left", "channel": 0}
{"t": 4.3872, "source": "input", "event": "note_off", "note": 43, "name": "G2", "pc": 7, "velocity": 0, "hand": "left", "channel": 0}
{"t": 4.7419, "source": "input", "event": "note_on", "note": 45, "name": "A2", "pc": 9, "velocity": 57, "hand": "left", "channel": 0}
{"t": 4.7522, "source": "input", "event": "note_off", "note": 48, "name": "C3", "pc": 0, "velocity": 0, "hand": "left", "channel": 0}
{"t": 4.7558, "source": "input", "event": "note_on", "note": 60, "name": "C4", "pc": 0, "velocity": 73, "hand": "right", "channel": 0}
{"t": 4.767, "source": "input", "event": "note_off", "note": 62, "name": "D4", "pc": 2, "velocity": 0, "hand": "right", "channel": 0}
{"t": 5.1692, "source": "input", "event": "note_on", "note": 52, "name": "E3", "pc": 4, "velocity": 40, "hand": "left", "channel": 0}
{"t": 5.7031, "source": "input", "event": "note_on", "note": 57, "name": "A3", "pc": 9, "velocity": 32, "hand": "left", "channel": 0}
{"t": 5.8238, "source": "input", "event": "note_off", "note": 60, "name": "C4", "pc": 0, "velocity": 0, "hand": "right", "channel": 0}
{"t": 5.9553, "source": "input", "event": "note_on", "note": 60, "name": "C4", "pc": 0, "velocity": 68, "hand": "right", "channel": 0}
{"t": 6.0472, "source": "input", "event": "note_off", "note": 60, "name": "C4", "pc": 0, "velocity": 0, "hand": "right", "channel": 0}
{"t": 6.1593, "source": "input", "event": "note_on", "note": 60, "name": "C4", "pc": 0, "velocity": 69, "hand": "right", "channel": 0}
{"t": 6.2757, "source": "input", "event": "note_off", "note": 57, "name": "A3", "pc": 9, "velocity": 0, "hand": "left", "channel": 0}
{"t": 6.3575, "source": "input", "event": "note_off", "note": 45, "name": "A2", "pc": 9, "velocity": 0, "hand": "left", "channel": 0}
{"t": 6.3575, "source": "input", "event": "note_off", "note": 52, "name": "E3", "pc": 4, "velocity": 0, "hand": "left", "channel": 0}
{"t": 6.3806, "source": "input", "event": "note_off", "note": 60, "name": "C4", "pc": 0, "velocity": 0, "hand": "right", "channel": 0}
{"t": 6.3922, "source": "input", "event": "note_on", "note": 62, "name": "D4", "pc": 2, "velocity": 70, "hand": "right", "channel": 0}
{"t": 6.6526, "source": "input", "event": "note_on", "note": 64, "name": "E4", "pc": 4, "velocity": 63, "hand": "right", "channel": 0}
{"t": 6.6755, "source": "input", "event": "note_off", "note": 62, "name": "D4", "pc": 2, "velocity": 0, "hand": "right", "channel": 0}
{"t": 6.6833, "source": "input", "event": "note_on", "note": 40, "name": "E2", "pc": 4, "velocity": 57, "hand": "left", "channel": 0}
{"t": 7.1191, "source": "input", "event": "note_on", "note": 47, "name": "B2", "pc": 11, "velocity": 54, "hand": "left", "channel": 0}
{"t": 7.1262, "source": "input", "event": "note_on", "note": 62, "name": "D4", "pc": 2, "velocity": 74, "hand": "right", "channel": 0}
{"t": 7.172, "source": "input", "event": "note_off", "note": 64, "name": "E4", "pc": 4, "velocity": 0, "hand": "right", "channel": 0}
{"t": 7.3798, "source": "input", "event": "note_off", "note": 62, "name": "D4", "pc": 2, "velocity": 0, "hand": "right", "channel": 0}
{"t": 7.3839, "source": "input", "event": "note_on", "note": 60, "name": "C4", "pc": 0, "velocity": 76, "hand": "right", "channel": 0}
{"t": 7.5907, "source": "input", "event": "note_on", "note": 52, "name": "E3", "pc": 4, "velocity": 57, "hand": "left", "channel": 0}
{"t": 7.8435, "source": "input", "event": "note_off", "note": 60, "name": "C4", "pc": 0, "velocity": 0, "hand": "right", "channel": 0}
{"t": 7.8766, "source": "input", "event": "note_on", "note": 59, "name": "B3", "pc": 11, "velocity": 62, "hand": "left", "channel": 0}
{"t": 8.2069, "source": "input", "event": "note_off", "note": 40, "name": "E2", "pc": 4, "velocity": 0, "hand": "left", "channel": 0}
{"t": 8.5928, "source": "input", "event": "note_on", "note": 57, "name": "A3", "pc": 9, "velocity": 70, "hand": "left", "channel": 0}
{"t": 8.6007, "source": "input", "event": "note_on", "note": 41, "name": "F2", "pc": 5, "velocity": 47, "hand": "left", "channel": 0}
{"t": 8.6377, "source": "input", "event": "note_off", "note": 52, "name": "E3", "pc": 4, "velocity": 0, "hand": "left", "channel": 0}
{"t": 8.6377, "source": "input", "event": "note_off", "note": 59, "name": "B3", "pc": 11, "velocity": 0, "hand": "left", "channel": 0}
{"t": 8.6674, "source": "input", "event": "note_off", "note": 47, "name": "B2", "pc": 11, "velocity": 0, "hand": "left", "channel": 0}
{"t": 9.1099, "source": "input", "event": "note_on", "note": 48, "name": "C3", "pc": 0, "velocity": 47, "hand": "left", "channel": 0}
{"t": 9.5991, "source": "input", "event": "note_on", "note": 53, "name": "F3", "pc": 5, "velocity": 50, "hand": "left", "channel": 0}
{"t": 10.273, "source": "input", "event": "note_off", "note": 41, "name": "F2", "pc": 5, "velocity": 0, "hand": "left", "channel": 0}
{"t": 10.359, "source": "input", "event": "note_off", "note": 53, "name": "F3", "pc": 5, "velocity": 0, "hand": "left", "channel": 0}
{"t": 10.5609, "source": "input", "event": "note_on", "note": 43, "name": "G2", "pc": 7, "velocity": 65, "hand": "left", "channel": 0}
{"t": 10.5726, "source": "input", "event": "note_off", "note": 48, "name": "C3", "pc": 0, "velocity": 0, "hand": "left", "channel": 0}
{"t": 10.5804, "source": "input", "event": "note_on", "note": 55, "name": "G3", "pc": 7, "velocity": 72, "hand": "left", "channel": 0}
{"t": 10.6399, "source": "input", "event": "note_off", "note": 57, "name": "A3", "pc": 9, "velocity": 0, "hand": "left", "channel": 0}
{"t": 11.0785, "source": "input", "event": "note_on", "note": 50, "name": "D3", "pc": 2, "velocity": 59, "hand": "left", "channel": 0}
{"t": 11.0864, "source": "input", "event": "note_off", "note": 55, "name": "G3", "pc": 7, "velocity": 0, "hand": "left", "channel": 0}
{"t": 11.2983, "source": "input", "event": "note_on", "note": 55, "name": "G3", "pc": 7, "velocity": 57, "hand": "left", "channel": 0}
{"t": 11.5396, "source": "input", "event": "note_on", "note": 57, "name": "A3", "pc": 9, "velocity": 57, "hand": "left", "channel": 0}
{"t": 11.5949, "source": "input", "event": "note_off", "note": 55, "name": "G3", "pc": 7, "velocity": 0, "hand": "left", "channel": 0}
{"t": 11.8016, "source": "input", "event": "note_on", "note": 59, "name": "B3", "pc": 11, "velocity": 55, "hand": "left", "channel": 0}
{"t": 11.8539, "source": "input", "event": "note_off", "note": 57, "name": "A3", "pc": 9, "velocity": 0, "hand": "left", "channel": 0}
{"t": 12.0746, "source": "input", "event": "note_off", "note": 43, "name": "G2", "pc": 7, "velocity": 0, "hand": "left", "channel": 0}
{"t": 12.0824, "source": "input", "event": "note_off", "note": 50, "name": "D3", "pc": 2, "velocity": 0, "hand": "left", "channel": 0}
{"t": 12.4915, "source": "input", "event": "note_on", "note": 40, "name": "E2", "pc": 4, "velocity": 73, "hand": "left", "channel": 0}
{"t": 12.5031, "source": "input", "event": "note_on", "note": 52, "name": "E3", "pc": 4, "velocity": 60, "hand": "left", "channel": 0}
{"t": 12.5108, "source": "input", "event": "note_off", "note": 59, "name": "B3", "pc": 11, "velocity": 0, "hand": "left", "channel": 0}
{"t": 12.9856, "source": "input", "event": "note_on", "note": 47, "name": "B2", "pc": 11, "velocity": 53, "hand": "left", "channel": 0}
{"t": 13.1827, "source": "input", "event": "note_on", "note": 57, "name": "A3", "pc": 9, "velocity": 65, "hand": "left", "channel": 0}
{"t": 13.2091, "source": "input", "event": "note_off", "note": 52, "name": "E3", "pc": 4, "velocity": 0, "hand": "left", "channel": 0}
{"t": 13.4149, "source": "input", "event": "note_on", "note": 52, "name": "E3", "pc": 4, "velocity": 48, "hand": "left", "channel": 0}
{"t": 13.4379, "source": "input", "event": "note_on", "note": 59, "name": "B3", "pc": 11, "velocity": 68, "hand": "left", "channel": 0}
{"t": 13.4603, "source": "input", "event": "note_off", "note": 57, "name": "A3", "pc": 9, "velocity": 0, "hand": "left", "channel": 0}
{"t": 13.653, "source": "input", "event": "note_on", "note": 60, "name": "C4", "pc": 0, "velocity": 67, "hand": "right", "channel": 0}
{"t": 13.7234, "source": "input", "event": "note_off", "note": 59, "name": "B3", "pc": 11, "velocity": 0, "hand": "left", "channel": 0}
{"t": 13.884, "source": "input", "event": "note_on", "note": 62, "name": "D4", "pc": 2, "velocity": 82, "hand": "right", "channel": 0}
{"t": 13.884, "source": "input", "event": "note_off", "note": 40, "name": "E2", "pc": 4, "velocity": 0, "hand": "left", "channel": 0}
{"t": 13.9287, "source": "input", "event": "note_off", "note": 60, "name": "C4", "pc": 0, "velocity": 0, "hand": "right", "channel": 0}
{"t": 14.0923, "source": "input", "event": "note_off", "note": 47, "name": "B2", "pc": 11, "velocity": 0, "hand": "left", "channel": 0}
{"t": 14.1189, "source": "input", "event": "note_on", "note": 60, "name": "C4", "pc": 0, "velocity": 69, "hand": "right", "channel": 0}
{"t": 14.1268, "source": "input", "event": "note_off", "note": 62, "name": "D4", "pc": 2, "velocity": 0, "hand": "right", "channel": 0}
{"t": 14.3743, "source": "input", "event": "note_on", "note": 59, "name": "B3", "pc": 11, "velocity": 69, "hand": "left", "channel": 0}
{"t": 14.3853, "source": "input", "event": "note_off", "note": 52, "name": "E3", "pc": 4, "velocity": 0, "hand": "left", "channel": 0}
{"t": 14.397, "source": "input", "event": "note_on", "note": 45, "name": "A2", "pc": 9, "velocity": 47, "hand": "left", "channel": 0}
{"t": 14.4158, "source": "input", "event": "note_off", "note": 60, "name": "C4", "pc": 0, "velocity": 0, "hand": "right", "channel": 0}
{"t": 14.8161, "source": "input", "event": "note_on", "note": 52, "name": "E3", "pc": 4, "velocity": 48, "hand": "left", "channel": 0}
{"t": 15.0846, "source": "input", "event": "note_on", "note": 60, "name": "C4", "pc": 0, "velocity": 70, "hand": "right", "channel": 0}
{"t": 15.119, "source": "input", "event": "note_off", "note": 59, "name": "B3", "pc": 11, "velocity": 0, "hand": "left", "channel": 0}
{"t": 15.7557, "source": "input", "event": "note_on", "note": 62, "name": "D4", "pc": 2, "velocity": 70, "hand": "right", "channel": 0}
{"t": 15.782, "source": "input", "event": "note_off", "note": 60, "name": "C4", "pc": 0, "velocity": 0, "hand": "right", "channel": 0}
{"t": 15.8762, "source": "input", "event": "note_off", "note": 52, "name": "E3", "pc": 4, "velocity": 0, "hand": "left", "channel": 0}
{"t": 15.9317, "source": "input", "event": "note_off", "note": 45, "name": "A2", "pc": 9, "velocity": 0, "hand": "left", "channel": 0}
{"t": 16.0279, "source": "input", "event": "note_on", "note": 64, "name": "E4", "pc": 4, "velocity": 93, "hand": "right", "channel": 0}
{"t": 16.0502, "source": "input", "event": "note_off", "note": 62, "name": "D4", "pc": 2, "velocity": 0, "hand": "right", "channel": 0}
{"t": 16.1492, "source": "input", "event": "note_off", "note": 64, "name": "E4", "pc": 4, "velocity": 0, "hand": "right", "channel": 0}
{"t": 16.2704, "source": "input", "event": "note_on", "note": 65, "name": "F4", "pc": 5, "velocity": 80, "hand": "right", "channel": 0}
{"t": 16.297, "source": "input", "event": "note_on", "note": 38, "name": "D2", "pc": 2, "velocity": 51, "hand": "left", "channel": 0}
{"t": 16.7601, "source": "input", "event": "note_on", "note": 45, "name": "A2", "pc": 9, "velocity": 19, "hand": "left", "channel": 0}
{"t": 17.2122, "source": "input", "event": "note_on", "note": 50, "name": "D3", "pc": 2, "velocity": 53, "hand": "left", "channel": 0}
{"t": 17.455, "source": "input", "event": "note_on", "note": 62, "name": "D4", "pc": 2, "velocity": 77, "hand": "right", "channel": 0}
{"t": 17.4629, "source": "input", "event": "note_off", "note": 65, "name": "F4", "pc": 5, "velocity": 0, "hand": "right", "channel": 0}
{"t": 17.663, "source": "input", "event": "note_on", "note": 65, "name": "F4", "pc": 5, "velocity": 78, "hand": "right", "channel": 0}
{"t": 17.7109, "source": "input", "event": "note_off", "note": 62, "name": "D4", "pc": 2, "velocity": 0, "hand": "right", "channel": 0}
{"t": 17.8337, "source": "input", "event": "note_off", "note": 38, "name": "D2", "pc": 2, "velocity": 0, "hand": "left", "channel": 0}
{"t": 18.1476, "source": "input", "event": "note_on", "note": 64, "name": "E4", "pc": 4, "velocity": 85, "hand": "right", "channel": 0}
{"t": 18.1586, "source": "input", "event": "note_on", "note": 40, "name": "E2", "pc": 4, "velocity": 64, "hand": "left", "channel": 0}
{"t": 18.1847, "source": "input", "event": "note_off", "note": 65, "name": "F4", "pc": 5, "velocity": 0, "hand": "right", "channel": 0}
{"t": 18.1924, "source": "input", "event": "note_off", "note": 50, "name": "D3", "pc": 2, "velocity": 0, "hand": "left", "channel": 0}
{"t": 18.215, "source": "input", "event": "note_off", "note": 45, "name": "A2", "pc": 9, "velocity": 0, "hand": "left", "channel": 0}
{"t": 18.6452, "source": "input", "event": "note_on", "note": 47, "name": "B2", "pc": 11, "velocity": 40, "hand": "left", "channel": 0}
{"t": 19.3294, "source": "input", "event": "note_off", "note": 64, "name": "E4", "pc": 4, "velocity": 0, "hand": "right", "channel": 0}
{"t": 19.3523, "source": "input", "event": "note_on", "note": 65, "name": "F4", "pc": 5, "velocity": 61, "hand": "right", "channel": 0}
{"t": 19.5919, "source": "input", "event": "note_off", "note": 65, "name": "F4", "pc": 5, "velocity": 0, "hand": "right", "channel": 0}
{"t": 19.5958, "source": "input", "event": "note_on", "note": 67, "name": "G4", "pc": 7, "velocity": 63, "hand": "right", "channel": 0}
{"t": 19.7662, "source": "input", "event": "note_off", "note": 67, "name": "G4", "pc": 7, "velocity": 0, "hand": "right", "channel": 0}
{"t": 19.7886, "source": "input", "event": "note_on", "note": 65, "name": "F4", "pc": 5, "velocity": 22, "hand": "right", "channel": 0}
{"t": 20.0446, "source": "input", "event": "note_off", "note": 65, "name": "F4", "pc": 5, "velocity": 0, "hand": "right", "channel": 0}
{"t": 20.0673, "source": "input", "event": "note_on", "note": 64, "name": "E4", "pc": 4, "velocity": 58, "hand": "right", "channel": 0}
{"t": 20.0673, "source": "input", "event": "note_on", "note": 52, "name": "E3", "pc": 4, "velocity": 32, "hand": "left", "channel": 0}
{"t": 20.5595, "source": "input", "event": "note_off", "note": 64, "name": "E4", "pc": 4, "velocity": 0, "hand": "right", "channel": 0}
{"t": 20.962, "source": "input", "event": "note_on", "note": 64, "name": "E4", "pc": 4, "velocity": 70, "hand": "right", "channel": 0}
{"t": 21.1363, "source": "input", "event": "note_off", "note": 64, "name": "E4", "pc": 4, "velocity": 0, "hand": "right", "channel": 0}
{"t": 21.2921, "source": "input", "event": "note_on", "note": 64, "name": "E4", "pc": 4, "velocity": 69, "hand": "right", "channel": 0}
{"t": 21.6856, "source": "input", "event": "note_on", "note": 65, "name": "F4", "pc": 5, "velocity": 72, "hand": "right", "channel": 0}
{"t": 21.6897, "source": "input", "event": "note_off", "note": 64, "name": "E4", "pc": 4, "velocity": 0, "hand": "right", "channel": 0}
{"t": 21.7165, "source": "input", "event": "note_off", "note": 52, "name": "E3", "pc": 4, "velocity": 0, "hand": "left", "channel": 0}
{"t": 21.7506, "source": "input", "event": "note_off", "note": 40, "name": "E2", "pc": 4, "velocity": 0, "hand": "left", "channel": 0}
{"t": 21.7658, "source": "input", "event": "note_off", "note": 47, "name": "B2", "pc": 11, "velocity": 0, "hand": "left", "channel": 0}
{"t": 21.9743, "source": "input", "event": "note_on", "note": 67, "name": "G4", "pc": 7, "velocity": 73, "hand": "right", "channel": 0}
{"t": 21.9743, "source": "input", "event": "note_on", "note": 36, "name": "C2", "pc": 0, "velocity": 60, "hand": "left", "channel": 0}
{"t": 22.0007, "source": "input", "event": "note_off", "note": 65, "name": "F4", "pc": 5, "velocity": 0, "hand": "right", "channel": 0}
{"t": 22.4289, "source": "input", "event": "note_on", "note": 65, "name": "F4", "pc": 5, "velocity": 85, "hand": "right", "channel": 0}
{"t": 22.4367, "source": "input", "event": "note_on", "note": 43, "name": "G2", "pc": 7, "velocity": 44, "hand": "left", "channel": 0}
{"t": 22.4894, "source": "input", "event": "note_off", "note": 67, "name": "G4", "pc": 7, "velocity": 0, "hand": "right", "channel": 0}
{"t": 22.6559, "source": "input", "event": "note_off", "note": 65, "name": "F4", "pc": 5, "velocity": 0, "hand": "right", "channel": 0}
{"t": 22.6893, "source": "input", "event": "note_on", "note": 64, "name": "E4", "pc": 4, "velocity": 69, "hand": "right", "channel": 0}
{"t": 22.9429, "source": "input", "event": "note_on", "note": 48, "name": "C3", "pc": 0, "velocity": 48, "hand": "left", "channel": 0}
{"t": 23.1809, "source": "input", "event": "note_off", "note": 64, "name": "E4", "pc": 4, "velocity": 0, "hand": "right", "channel": 0}
{"t": 23.185, "source": "input", "event": "note_on", "note": 62, "name": "D4", "pc": 2, "velocity": 78, "hand": "right", "channel": 0}
{"t": 23.4526, "source": "input", "event": "note_off", "note": 36, "name": "C2", "pc": 0, "velocity": 0, "hand": "left", "channel": 0}
{"t": 23.5322, "source": "input", "event": "note_off", "note": 43, "name": "G2", "pc": 7, "velocity": 0, "hand": "left", "channel": 0}
{"t": 23.8531, "source": "input", "event": "note_on", "note": 45, "name": "A2", "pc": 9, "velocity": 78, "hand": "left", "channel": 0}
{"t": 23.8648, "source": "input", "event": "note_off", "note": 48, "name": "C3", "pc": 0, "velocity": 0, "hand": "left", "channel": 0}
{"t": 23.8648, "source": "input", "event": "note_off", "note": 62, "name": "D4", "pc": 2, "velocity": 0, "hand": "right", "channel": 0}
{"t": 23.8689, "source": "input", "event": "note_on", "note": 60, "name": "C4", "pc": 0, "velocity": 70, "hand": "right", "channel": 0}
{"t": 24.3315, "source": "input", "event": "note_on", "note": 52, "name": "E3", "pc": 4, "velocity": 50, "hand": "left", "channel": 0}
{"t": 24.8025, "source": "input", "event": "note_on", "note": 57, "name": "A3", "pc": 9, "velocity": 53, "hand": "left", "channel": 0}
{"t": 24.8777, "source": "input", "event": "note_off", "note": 60, "name": "C4", "pc": 0, "velocity": 0, "hand": "right", "channel": 0}
{"t": 25.0115, "source": "input", "event": "note_on", "note": 60, "name": "C4", "pc": 0, "velocity": 71, "hand": "right", "channel": 0}
{"t": 25.1179, "source": "input", "event": "note_off", "note": 60, "name": "C4", "pc": 0, "velocity": 0, "hand": "right", "channel": 0}
{"t": 25.2582, "source": "input", "event": "note_on", "note": 60, "name": "C4", "pc": 0, "velocity": 70, "hand": "right", "channel": 0}
{"t": 25.3914, "source": "input", "event": "note_off", "note": 57, "name": "A3", "pc": 9, "velocity": 0, "hand": "left", "channel": 0}
{"t": 25.4647, "source": "input", "event": "note_off", "note": 52, "name": "E3", "pc": 4, "velocity": 0, "hand": "left", "channel": 0}
{"t": 25.4759, "source": "input", "event": "note_on", "note": 62, "name": "D4", "pc": 2, "velocity": 64, "hand": "right", "channel": 0}
{"t": 25.4826, "source": "input", "event": "note_off", "note": 60, "name": "C4", "pc": 0, "velocity": 0, "hand": "right", "channel": 0}
{"t": 25.5, "source": "input", "event": "note_off", "note": 45, "name": "A2", "pc": 9, "velocity": 0, "hand": "left", "channel": 0}
{"t": 25.7182, "source": "input", "event": "note_on", "note": 64, "name": "E4", "pc": 4, "velocity": 81, "hand": "right", "channel": 0}
{"t": 25.7363, "source": "input", "event": "note_on", "note": 40, "name": "E2", "pc": 4, "velocity": 62, "hand": "left", "channel": 0}
{"t": 25.7705, "source": "input", "event": "note_off", "note": 62, "name": "D4", "pc": 2, "velocity": 0, "hand": "right", "channel": 0}
{"t": 26.1532, "source": "input", "event": "note_on", "note": 62, "name": "D4", "pc": 2, "velocity": 71, "hand": "right", "channel": 0}
{"t": 26.161, "source": "input", "event": "note_on", "note": 47, "name": "B2", "pc": 11, "velocity": 54, "hand": "left", "channel": 0}
{"t": 26.1726, "source": "input", "event": "note_off", "note": 64, "name": "E4", "pc": 4, "velocity": 0, "hand": "right", "channel": 0}
{"t": 26.4281, "source": "input", "event": "note_off", "note": 62, "name": "D4", "pc": 2, "velocity": 0, "hand": "right", "channel": 0}
{"t": 26.4281, "source": "input", "event": "note_on", "note": 60, "name": "C4", "pc": 0, "velocity": 58, "hand": "right", "channel": 0}
{"t": 26.6555, "source": "input", "event": "note_on", "note": 52, "name": "E3", "pc": 4, "velocity": 59, "hand": "left", "channel": 0}
{"t": 26.9024, "source": "input", "event": "note_off", "note": 60, "name": "C4", "pc": 0, "velocity": 0, "hand": "right", "channel": 0}
{"t": 26.9057, "source": "input", "event": "note_on", "note": 59, "name": "B3", "pc": 11, "velocity": 64, "hand": "left", "channel": 0}
{"t": 27.2431, "source": "input", "event": "note_off", "note": 40, "name": "E2", "pc": 4, "velocity": 0, "hand": "left", "channel": 0}
{"t": 27.6283, "source": "input", "event": "note_on", "note": 57, "name": "A3", "pc": 9, "velocity": 68, "hand": "left", "channel": 0}
{"t": 27.6399, "source": "input", "event": "note_on", "note": 41, "name": "F2", "pc": 5, "velocity": 45, "hand": "left", "channel": 0}
{"t": 27.676, "source": "input", "event": "note_off", "note": 59, "name": "B3", "pc": 11, "velocity": 0, "hand": "left", "channel": 0}
{"t": 27.6868, "source": "input", "event": "note_off", "note": 52, "name": "E3", "pc": 4, "velocity": 0, "hand": "left", "channel": 0}
{"t": 27.7164, "source": "input", "event": "note_off", "note": 47, "name": "B2", "pc": 11, "velocity": 0, "hand": "left", "channel": 0}
{"t": 28.1216, "source": "input", "event": "note_on", "note": 48, "name": "C3", "pc": 0, "velocity": 37, "hand": "left", "channel": 0}
{"t": 28.6055, "source": "input", "event": "note_on", "note": 53, "name": "F3", "pc": 5, "velocity": 47, "hand": "left", "channel": 0}
{"t": 29.2114, "source": "input", "event": "note_off", "note": 41, "name": "F2", "pc": 5, "velocity": 0, "hand": "left", "channel": 0}
{"t": 29.2519, "source": "input", "event": "note_off", "note": 53, "name": "F3", "pc": 5, "velocity": 0, "hand": "left", "channel": 0}
{"t": 29.4963, "source": "input", "event": "note_on", "note": 55, "name": "G3", "pc": 7, "velocity": 78, "hand": "left", "channel": 0}
{"t": 29.4997, "source": "input", "event": "note_off", "note": 48, "name": "C3", "pc": 0, "velocity": 0, "hand": "left", "channel": 0}
{"t": 29.5339, "source": "input", "event": "note_on", "note": 43, "name": "G2", "pc": 7, "velocity": 45, "hand": "left", "channel": 0}
{"t": 29.5562, "source": "input", "event": "note_off", "note": 57, "name": "A3", "pc": 9, "velocity": 0, "hand": "left", "channel": 0}
{"t": 29.9739, "source": "input", "event": "note_on", "note": 50, "name": "D3", "pc": 2, "velocity": 54, "hand": "left", "channel": 0}
{"t": 30.044, "source": "input", "event": "note_off", "note": 55, "name": "G3", "pc": 7, "velocity": 0, "hand": "left", "channel": 0}
{"t": 30.1892, "source": "input", "event": "note_on", "note": 55, "name": "G3", "pc": 7, "velocity": 65, "hand": "left", "channel": 0}
{"t": 30.4191, "source": "input", "event": "note_on", "note": 57, "name": "A3", "pc": 9, "velocity": 60, "hand": "left", "channel": 0}
{"t": 30.4844, "source": "input", "event": "note_off", "note": 55, "name": "G3", "pc": 7, "velocity": 0, "hand": "left", "channel": 0}
{"t": 30.6535, "source": "input", "event": "note_on", "note": 59, "name": "B3", "pc": 11, "velocity": 51, "hand": "left", "channel": 0}
{"t": 30.6764, "source": "input", "event": "note_off", "note": 57, "name": "A3", "pc": 9, "velocity": 0, "hand": "left", "channel": 0}
{"t": 30.9388, "source": "input", "event": "note_off", "note": 50, "name": "D3", "pc": 2, "velocity": 0, "hand": "left", "channel": 0}
{"t": 30.9681, "source": "input", "event": "note_off", "note": 43, "name": "G2", "pc": 7, "velocity": 0, "hand": "left", "channel": 0}
{"t": 31.3129, "source": "input", "event": "note_on", "note": 40, "name": "E2", "pc": 4, "velocity": 62, "hand": "left", "channel": 0}
{"t": 31.3169, "source": "input", "event": "note_on", "note": 52, "name": "E3", "pc": 4, "velocity": 71, "hand": "left", "channel": 0}
{"t": 31.3247, "source": "input", "event": "note_off", "note": 59, "name": "B3", "pc": 11, "velocity": 0, "hand": "left", "channel": 0}
{"t": 31.8142, "source": "input", "event": "note_on", "note": 47, "name": "B2", "pc": 11, "velocity": 69, "hand": "left", "channel": 0}
{"t": 32.0251, "source": "input", "event": "note_on", "note": 57, "name": "A3", "pc": 9, "velocity": 64, "hand": "left", "channel": 0}
{"t": 32.0808, "source": "input", "event": "note_off", "note": 52, "name": "E3", "pc": 4, "velocity": 0, "hand": "left", "channel": 0}
{"t": 32.2728, "source": "input", "event": "note_on", "note": 52, "name": "E3", "pc": 4, "velocity": 53, "hand": "left", "channel": 0}
{"t": 32.2806, "source": "input", "event": "note_on", "note": 59, "name": "B3", "pc": 11, "velocity": 65, "hand": "left", "channel": 0}
{"t": 32.2997, "source": "input", "event": "note_off", "note": 57, "name": "A3", "pc": 9, "velocity": 0, "hand": "left", "channel": 0}
{"t": 32.4847, "source": "input", "event": "note_on", "note": 60, "name": "C4", "pc": 0, "velocity": 67, "hand": "right", "channel": 0}
{"t": 32.5666, "source": "input", "event": "note_off", "note": 59, "name": "B3", "pc": 11, "velocity": 0, "hand": "left", "channel": 0}
{"t": 32.7197, "source": "input", "event": "note_on", "note": 62, "name": "D4", "pc": 2, "velocity": 90, "hand": "right", "channel": 0}
{"t": 32.7617, "source": "input", "event": "note_off", "note": 60, "name": "C4", "pc": 0, "velocity": 0, "hand": "right", "channel": 0}
{"t": 32.8796, "source": "input", "event": "note_off", "note": 40, "name": "E2", "pc": 4, "velocity": 0, "hand": "left", "channel": 0}
{"t": 32.9397, "source": "input", "event": "note_off", "note": 62, "name": "D4", "pc": 2, "velocity": 0, "hand": "right", "channel": 0}
{"t": 32.9438, "source": "input", "event": "note_on", "note": 60, "name": "C4", "pc": 0, "velocity": 73, "hand": "right", "channel": 0}
{"t": 32.9919, "source": "input", "event": "note_off", "note": 47, "name": "B2", "pc": 11, "velocity": 0, "hand": "left", "channel": 0}
{"t": 33.2053, "source": "input", "event": "note_on", "note": 45, "name": "A2", "pc": 9, "velocity": 70, "hand": "left", "channel": 0}
{"t": 33.2162, "source": "input", "event": "note_on", "note": 59, "name": "B3", "pc": 11, "velocity": 54, "hand": "left", "channel": 0}
{"t": 33.2203, "source": "input", "event": "note_off", "note": 52, "name": "E3", "pc": 4, "velocity": 0, "hand": "left", "channel": 0}
{"t": 33.2503, "source": "input", "event": "note_off", "note": 60, "name": "C4", "pc": 0, "velocity": 0, "hand": "right", "channel": 0}
{"t": 33.6787, "source": "input", "event": "note_on", "note": 52, "name": "E3", "pc": 4, "velocity": 54, "hand": "left", "channel": 0}
{"t": 33.9033, "source": "input", "event": "note_on", "note": 60, "name": "C4", "pc": 0, "velocity": 66, "hand": "right", "channel": 0}
{"t": 33.9147, "source": "input", "event": "note_off", "note": 59, "name": "B3", "pc": 11, "velocity": 0, "hand": "left", "channel": 0}
{"t": 34.7298, "source": "input", "event": "note_on", "note": 62, "name": "D4", "pc": 2, "velocity": 47, "hand": "right", "channel": 0}
{"t": 34.7604, "source": "input", "event": "note_off", "note": 60, "name": "C4", "pc": 0, "velocity": 0, "hand": "right", "channel": 0}
{"t": 34.8967, "source": "input", "event": "note_off", "note": 52, "name": "E3", "pc": 4, "velocity": 0, "hand": "left", "channel": 0}
{"t": 34.961, "source": "input", "event": "note_off", "note": 45, "name": "A2", "pc": 9, "velocity": 0, "hand": "left", "channel": 0}
{"t": 35.0209, "source": "input", "event": "note_on", "note": 64, "name": "E4", "pc": 4, "velocity": 82, "hand": "right", "channel": 0}
{"t": 35.051, "source": "input", "event": "note_off", "note": 62, "name": "D4", "pc": 2, "velocity": 0, "hand": "right", "channel": 0}
{"t": 35.2535, "source": "input", "event": "note_on", "note": 62, "name": "D4", "pc": 2, "velocity": 90, "hand": "right", "channel": 0}
{"t": 35.2535, "source": "input", "event": "note_off", "note": 64, "name": "E4", "pc": 4, "velocity": 0, "hand": "right", "channel": 0}
{"t": 35.2576, "source": "input", "event": "note_on", "note": 38, "name": "D2", "pc": 2, "velocity": 41, "hand": "left", "channel": 0}
{"t": 35.7037, "source": "input", "event": "note_on", "note": 45, "name": "A2", "pc": 9, "velocity": 50, "hand": "left", "channel": 0}
{"t": 36.1519, "source": "input", "event": "note_on", "note": 50, "name": "D3", "pc": 2, "velocity": 53, "hand": "left", "channel": 0}
{"t": 36.3946, "source": "input", "event": "note_off", "note": 62, "name": "D4", "pc": 2, "velocity": 0, "hand": "right", "channel": 0}
{"t": 36.4137, "source": "input", "event": "note_on", "note": 59, "name": "B3", "pc": 11, "velocity": 75, "hand": "left", "channel": 0}
{"t": 36.7411, "source": "input", "event": "note_off", "note": 38, "name": "D2", "pc": 2, "velocity": 0, "hand": "left", "channel": 0}
{"t": 36.8296, "source": "input", "event": "note_on", "note": 57, "name": "A3", "pc": 9, "velocity": 58, "hand": "left", "channel": 0}
{"t": 36.8514, "source": "input", "event": "note_off", "note": 59, "name": "B3", "pc": 11, "velocity": 0, "hand": "left", "channel": 0}
{"t": 37.0846, "source": "input", "event": "note_on", "note": 40, "name": "E2", "pc": 4, "velocity": 85, "hand": "left", "channel": 0}
{"t": 37.0917, "source": "input", "event": "note_on", "note": 59, "name": "B3", "pc": 11, "velocity": 70, "hand": "left", "channel": 0}
{"t": 37.1065, "source": "input", "event": "note_off", "note": 50, "name": "D3", "pc": 2, "velocity": 0, "hand": "left", "channel": 0}
{"t": 37.1294, "source": "input", "event": "note_off", "note": 57, "name": "A3", "pc": 9, "velocity": 0, "hand": "left", "channel": 0}
{"t": 37.1371, "source": "input", "event": "note_off", "note": 45, "name": "A2", "pc": 9, "velocity": 0, "hand": "left", "channel": 0}
{"t": 37.6055, "source": "input", "event": "note_on", "note": 47, "name": "B2", "pc": 11, "velocity": 39, "hand": "left", "channel": 0}
{"t": 37.8176, "source": "input", "event": "note_on", "note": 57, "name": "A3", "pc": 9, "velocity": 74, "hand": "left", "channel": 0}
{"t": 37.8443, "source": "input", "event": "note_off", "note": 59, "name": "B3", "pc": 11, "velocity": 0, "hand": "left", "channel": 0}
{"t": 38.0798, "source": "input", "event": "note_on", "note": 52, "name": "E3", "pc": 4, "velocity": 66, "hand": "left", "channel": 0}
{"t": 38.2855, "source": "input", "event": "note_on", "note": 55, "name": "G3", "pc": 7, "velocity": 80, "hand": "left", "channel": 0}
{"t": 38.3271, "source": "input", "event": "note_off", "note": 57, "name": "A3", "pc": 9, "velocity": 0, "hand": "left", "channel": 0}
{"t": 38.6012, "source": "input", "event": "note_off", "note": 40, "name": "E2", "pc": 4, "velocity": 0, "hand": "left", "channel": 0}
{"t": 38.7207, "source": "input", "event": "note_on", "note": 57, "name": "A3", "pc": 9, "velocity": 65, "hand": "left", "channel": 0}
{"t": 38.7288, "source": "input", "event": "note_off", "note": 47, "name": "B2", "pc": 11, "velocity": 0, "hand": "left", "channel": 0}
{"t": 38.807, "source": "input", "event": "note_off", "note": 55, "name": "G3", "pc": 7, "velocity": 0, "hand": "left", "channel": 0}
{"t": 38.8334, "source": "input", "event": "note_off", "note": 52, "name": "E3", "pc": 4, "velocity": 0, "hand": "left", "channel": 0}
{"t": 38.8522, "source": "input", "event": "note_off", "note": 57, "name": "A3", "pc": 9, "velocity": 0, "hand": "left", "channel": 0}
{"t": 38.9936, "source": "input", "event": "note_on", "note": 57, "name": "A3", "pc": 9, "velocity": 88, "hand": "left", "channel": 0}
{"t": 38.9977, "source": "input", "event": "note_on", "note": 45, "name": "A2", "pc": 9, "velocity": 48, "hand": "left", "channel": 0}
{"t": 39.4506, "source": "input", "event": "note_on", "note": 52, "name": "E3", "pc": 4, "velocity": 79, "hand": "left", "channel": 0}
{"t": 39.5075, "source": "input", "event": "note_off", "note": 57, "name": "A3", "pc": 9, "velocity": 0, "hand": "left", "channel": 0}
{"t": 39.9042, "source": "input", "event": "note_on", "note": 57, "name": "A3", "pc": 9, "velocity": 80, "hand": "left", "channel": 0}
{"t": 40.1333, "source": "input", "event": "note_on", "note": 59, "name": "B3", "pc": 11, "velocity": 72, "hand": "left", "channel": 0}
{"t": 40.3554, "source": "input", "event": "note_on", "note": 60, "name": "C4", "pc": 0, "velocity": 60, "hand": "right", "channel": 0}
{"t": 40.3596, "source": "input", "event": "note_off", "note": 59, "name": "B3", "pc": 11, "velocity": 0, "hand": "left", "channel": 0}
{"t": 40.5175, "source": "input", "event": "note_off", "note": 57, "name": "A3", "pc": 9, "velocity": 0, "hand": "left", "channel": 0}
{"t": 40.5475, "source": "input", "event": "note_on", "note": 59, "name": "B3", "pc": 11, "velocity": 72, "hand": "left", "channel": 0}
{"t": 40.5666, "source": "input", "event": "note_off", "note": 45, "name": "A2", "pc": 9, "velocity": 0, "hand": "left", "channel": 0}
{"t": 40.5919, "source": "input", "event": "note_off", "note": 60, "name": "C4", "pc": 0, "velocity": 0, "hand": "right", "channel": 0}
{"t": 40.5997, "source": "input", "event": "note_off", "note": 52, "name": "E3", "pc": 4, "velocity": 0, "hand": "left", "channel": 0}
{"t": 40.7566, "source": "input", "event": "note_off", "note": 59, "name": "B3", "pc": 11, "velocity": 0, "hand": "left", "channel": 0}
{"t": 40.8359, "source": "input", "event": "note_on", "note": 57, "name": "A3", "pc": 9, "velocity": 75, "hand": "left", "channel": 0}
{"t": 40.8437, "source": "input", "event": "note_on", "note": 52, "name": "E3", "pc": 4, "velocity": 48, "hand": "left", "channel": 0}
{"t": 40.8437, "source": "input", "event": "note_on", "note": 45, "name": "A2", "pc": 9, "velocity": 64, "hand": "left", "channel": 0}
{"t": 42.672, "source": "input", "event": "note_off", "note": 52, "name": "E3", "pc": 4, "velocity": 0, "hand": "left", "channel": 0}
{"t": 42.6866, "source": "input", "event": "note_off", "note": 57, "name": "A3", "pc": 9, "velocity": 0, "hand": "left", "channel": 0}
{"t": 42.7152, "source": "input", "event": "note_off", "note": 45, "name": "A2", "pc": 9, "velocity": 0, "hand": "left", "channel": 0}
