{"t": 1.3538, "source": "input", "event": "note_on", "note": 64, "name": "E4", "pc": 4, "velocity": 73, "hand": "right", "channel": 0}
{"t": 1.6112, "source": "input", "event": "note_off", "note": 64, "name": "E4", "pc": 4, "velocity": 0, "hand": "right", "channel": 0}
{"t": 1.6185, "source": "input", "event": "note_on", "note": 65, "name": "F4", "pc": 5, "velocity": 68, "hand": "right", "channel": 0}
{"t": 1.8902, "source": "input", "event": "note_off", "note": 65, "name": "F4", "pc": 5, "velocity": 0, "hand": "right", "channel": 0}
{"t": 1.9049, "source": "input", "event": "note_on", "note": 64, "name": "E4", "pc": 4, "velocity": 77, "hand": "right", "channel": 0}
{"t": 2.1312, "source": "input", "event": "note_off", "note": 64, "name": "E4", "pc": 4, "velocity": 0, "hand": "right", "channel": 0}
{"t": 2.139, "source": "input", "event": "note_on", "note": 65, "name": "F4", "pc": 5, "velocity": 55, "hand": "right", "channel": 0}
{"t": 2.4127, "source": "input", "event": "note_on", "note": 67, "name": "G4", "pc": 7, "velocity": 89, "hand": "right", "channel": 0}
{"t": 2.4235, "source": "input", "event": "note_off", "note": 65, "name": "F4", "pc": 5, "velocity": 0, "hand": "right", "channel": 0}
{"t": 2.4314, "source": "input", "event": "note_on", "note": 36, "name": "C2", "pc": 0, "velocity": 76, "hand": "left", "channel": 0}
{"t": 2.8886, "source": "input", "event": "note_on", "note": 65, "name": "F4", "pc": 5, "velocity": 84, "hand": "right", "channel": 0}
{"t": 2.9105, "source": "input", "event": "note_on", "note": 43, "name": "G2", "pc": 7, "velocity": 33, "hand": "left", "channel": 0}
{"t": 2.9357, "source": "input", "event": "note_off", "note": 67, "name": "G4", "pc": 7, "velocity": 0, "hand": "right", "channel": 0}
{"t": 3.0845, "source": "input", "event": "note_off", "note": 65, "name": "F4", "pc": 5, "velocity": 0, "hand": "right", "channel": 0}
{"t": 3.1145, "source": "input", "event": "note_on", "note": 64, "name": "E4", "pc": 4, "velocity": 78, "hand": "right", "channel": 0}
{"t": 3.3343, "source": "input", "event": "note_on", "note": 48, "name": "C3", "pc": 0, "velocity": 68, "hand": "left", "channel": 0}
{"t": 3.5366, "source": "input", "event": "note_off", "note": 64, "name": "E4", "pc": 4, "velocity": 0, "hand": "right", "channel": 0}
{"t": 3.5559, "source": "input", "event": "note_on", "note": 62, "name": "D4", "pc": 2, "velocity": 77, "hand": "right", "channel": 0}
{"t": 3.9712, "source": "input", "event": "note_off", "note": 36, "name": "C2", "pc": 0, "velocity": 0, "hand": "left", "channel": 0}
{"t": 4.0157, "source": "input", "event": "note_off", "note": 43, "name": "G2", "pc": 7, "velocity": 0, "hand": "left", "channel": 0}
{"t": 4.2565, "source": "input", "event": "note_off", "note": 48, "name": "C3", "pc": 0, "velocity": 0, "hand": "left", "channel": 0}
{"t": 4.268, "source": "input", "event": "note_on", "note": 60, "name": "C4", "pc": 0, "velocity": 87, "hand": "right", "channel": 0}
{"t": 4.272, "source": "input", "event": "note_on", "note": 45, "name": "A2", "pc": 9, "velocity": 49, "hand": "left", "channel": 0}
{"t": 4.2798, "source": "input", "event": "note_off", "note": 62, "name": "D4", "pc": 2, "velocity": 0, "hand": "right", "channel": 0}
{"t": 4.772, "source": "input", "event": "note_on", "note": 52, "name": "E3", "pc": 4, "velocity": 35, "hand": "left", "channel": 0}
{"t": 5.2522, "source": "input", "event": "note_on", "note": 57, "name": "A3", "pc": 9, "velocity": 48, "hand": "left", "channel": 0}
{"t": 5.5116, "source": "input", "event": "note_off", "note": 60, "name": "C4", "pc": 0, "velocity": 0, "hand": "right", "channel": 0}
{"t": 5.7057, "source": "input", "event": "note_on", "note": 60, "name": "C4", "pc": 0, "velocity": 79, "hand": "right", "channel": 0}
{"t": 5.7363, "source": "input", "event": "note_off", "note": 57, "name": "A3", "pc": 9, "velocity": 0, "hand": "left", "channel": 0}
{"t": 5.8074, "source": "input", "event": "note_off", "note": 52, "name": "E3", "pc": 4, "velocity": 0, "hand": "left", "channel": 0}
{"t": 5.8152, "source": "input", "event": "note_off", "note": 45, "name": "A2", "pc": 9, "velocity": 0, "hand": "left", "channel": 0}
{"t": 5.9008, "source": "input", "event": "note_on", "note": 62, "name": "D4", "pc": 2, "velocity": 79, "hand": "right", "channel": 0}
{"t": 5.9049, "source": "input", "event": "note_off", "note": 60, "name": "C4", "pc": 0, "velocity": 0, "hand": "right", "channel": 0}
{"t": 6.1428, "source": "input", "event": "note_on", "note": 64, "name": "E4", "pc": 4, "velocity": 89, "hand": "right", "channel": 0}
{"t": 6.1542, "source": "input", "event": "note_off", "note": 62, "name": "D4", "pc": 2, "velocity": 0, "hand": "right", "channel": 0}
{"t": 6.1582, "source": "input", "event": "note_on", "note": 40, "name": "E2", "pc": 4, "velocity": 51, "hand": "left", "channel": 0}
{"t": 6.5756, "source": "input", "event": "note_off", "note": 64, "name": "E4", "pc": 4, "velocity": 0, "hand": "right", "channel": 0}
{"t": 6.5797, "source": "input", "event": "note_on", "note": 62, "name": "D4", "pc": 2, "velocity": 83, "hand": "right", "channel": 0}
{"t": 6.6438, "source": "input", "event": "note_on", "note": 47, "name": "B2", "pc": 11, "velocity": 19, "hand": "left", "channel": 0}
{"t": 6.7842, "source": "input", "event": "note_off", "note": 62, "name": "D4", "pc": 2, "velocity": 0, "hand": "right", "channel": 0}
{"t": 6.8065, "source": "input", "event": "note_on", "note": 60, "name": "C4", "pc": 0, "velocity": 73, "hand": "right", "channel": 0}
{"t": 7.0413, "source": "input", "event": "note_on", "note": 52, "name": "E3", "pc": 4, "velocity": 66, "hand": "left", "channel": 0}
{"t": 7.2722, "source": "input", "event": "note_off", "note": 60, "name": "C4", "pc": 0, "velocity": 0, "hand": "right", "channel": 0}
{"t": 7.2761, "source": "input", "event": "note_on", "note": 59, "name": "B3", "pc": 11, "velocity": 69, "hand": "left", "channel": 0}
{"t": 7.6545, "source": "input", "event": "note_off", "note": 40, "name": "E2", "pc": 4, "velocity": 0, "hand": "left", "channel": 0}
{"t": 7.9349, "source": "input", "event": "note_on", "note": 57, "name": "A3", "pc": 9, "velocity": 79, "hand": "left", "channel": 0}
{"t": 7.9499, "source": "input", "event": "note_on", "note": 41, "name": "F2", "pc": 5, "velocity": 63, "hand": "left", "channel": 0}
{"t": 7.9613, "source": "input", "event": "note_off", "note": 52, "name": "E3", "pc": 4, "velocity": 0, "hand": "left", "channel": 0}
{"t": 7.9766, "source": "input", "event": "note_off", "note": 59, "name": "B3", "pc": 11, "velocity": 0, "hand": "left", "channel": 0}
{"t": 7.995, "source": "input", "event": "note_off", "note": 47, "name": "B2", "pc": 11, "velocity": 0, "hand": "left", "channel": 0}
{"t": 8.3933, "source": "input", "event": "note_on", "note": 48, "name": "C3", "pc": 0, "velocity": 44, "hand": "left", "channel": 0}
{"t": 8.8381, "source": "input", "event": "note_on", "note": 53, "name": "F3", "pc": 5, "velocity": 54, "hand": "left", "channel": 0}
{"t": 9.4313, "source": "input", "event": "note_off", "note": 41, "name": "F2", "pc": 5, "velocity": 0, "hand": "left", "channel": 0}
{"t": 9.6718, "source": "input", "event": "note_off", "note": 53, "name": "F3", "pc": 5, "velocity": 0, "hand": "left", "channel": 0}
{"t": 9.7207, "source": "input", "event": "note_on", "note": 55, "name": "G3", "pc": 7, "velocity": 75, "hand": "left", "channel": 0}
{"t": 9.7207, "source": "input", "event": "note_on", "note": 43, "name": "G2", "pc": 7, "velocity": 55, "hand": "left", "channel": 0}
{"t": 9.7319, "source": "input", "event": "note_off", "note": 48, "name": "C3", "pc": 0, "velocity": 0, "hand": "left", "channel": 0}
{"t": 9.7837, "source": "input", "event": "note_off", "note": 57, "name": "A3", "pc": 9, "velocity": 0, "hand": "left", "channel": 0}
{"t": 10.1694, "source": "input", "event": "note_on", "note": 50, "name": "D3", "pc": 2, "velocity": 65, "hand": "left", "channel": 0}
{"t": 10.2217, "source": "input", "event": "note_off", "note": 55, "name": "G3", "pc": 7, "velocity": 0, "hand": "left", "channel": 0}
{"t": 10.3861, "source": "input", "event": "note_on", "note": 55, "name": "G3", "pc": 7, "velocity": 70, "hand": "left", "channel": 0}
{"t": 10.5847, "source": "input", "event": "note_on", "note": 57, "name": "A3", "pc": 9, "velocity": 63, "hand": "left", "channel": 0}
{"t": 10.637, "source": "input", "event": "note_off", "note": 55, "name": "G3", "pc": 7, "velocity": 0, "hand": "left", "channel": 0}
{"t": 10.8213, "source": "input", "event": "note_on", "note": 59, "name": "B3", "pc": 11, "velocity": 57, "hand": "left", "channel": 0}
{"t": 10.8594, "source": "input", "event": "note_off", "note": 57, "name": "A3", "pc": 9, "velocity": 0, "hand": "left", "channel": 0}
{"t": 11.0497, "source": "input", "event": "note_off", "note": 50, "name": "D3", "pc": 2, "velocity": 0, "hand": "left", "channel": 0}
{"t": 11.0841, "source": "input", "event": "note_off", "note": 43, "name": "G2", "pc": 7, "velocity": 0, "hand": "left", "channel": 0}
{"t": 11.4548, "source": "input", "event": "note_off", "note": 59, "name": "B3", "pc": 11, "velocity": 0, "hand": "left", "channel": 0}
{"t": 11.47, "source": "input", "event": "note_on", "note": 40, "name": "E2", "pc": 4, "velocity": 67, "hand": "left", "channel": 0}
{"t": 11.4737, "source": "input", "event": "note_on", "note": 53, "name": "F3", "pc": 5, "velocity": 63, "hand": "left", "channel": 0}
{"t": 11.9076, "source": "input", "event": "note_on", "note": 47, "name": "B2", "pc": 11, "velocity": 63, "hand": "left", "channel": 0}
{"t": 12.1254, "source": "input", "event": "note_on", "note": 57, "name": "A3", "pc": 9, "velocity": 64, "hand": "left", "channel": 0}
{"t": 12.1747, "source": "input", "event": "note_off", "note": 53, "name": "F3", "pc": 5, "velocity": 0, "hand": "left", "channel": 0}
{"t": 12.3487, "source": "input", "event": "note_on", "note": 52, "name": "E3", "pc": 4, "velocity": 63, "hand": "left", "channel": 0}
{"t": 12.3603, "source": "input", "event": "note_on", "note": 59, "name": "B3", "pc": 11, "velocity": 61, "hand": "left", "channel": 0}
{"t": 12.3775, "source": "input", "event": "note_off", "note": 57, "name": "A3", "pc": 9, "velocity": 0, "hand": "left", "channel": 0}
{"t": 12.5349, "source": "input", "event": "note_on", "note": 60, "name": "C4", "pc": 0, "velocity": 69, "hand": "right", "channel": 0}
{"t": 12.5985, "source": "input", "event": "note_off", "note": 59, "name": "B3", "pc": 11, "velocity": 0, "hand": "left", "channel": 0}
{"t": 12.7686, "source": "input", "event": "note_on", "note": 62, "name": "D4", "pc": 2, "velocity": 82, "hand": "right", "channel": 0}
{"t": 12.7948, "source": "input", "event": "note_off", "note": 60, "name": "C4", "pc": 0, "velocity": 0, "hand": "right", "channel": 0}
{"t": 12.8884, "source": "input", "event": "note_off", "note": 40, "name": "E2", "pc": 4, "velocity": 0, "hand": "left", "channel": 0}
{"t": 12.974, "source": "input", "event": "note_off", "note": 62, "name": "D4", "pc": 2, "velocity": 0, "hand": "right", "channel": 0}
{"t": 12.974, "source": "input", "event": "note_on", "note": 60, "name": "C4", "pc": 0, "velocity": 74, "hand": "right", "channel": 0}
{"t": 13.0259, "source": "input", "event": "note_off", "note": 47, "name": "B2", "pc": 11, "velocity": 0, "hand": "left", "channel": 0}
{"t": 13.2084, "source": "input", "event": "note_on", "note": 59, "name": "B3", "pc": 11, "velocity": 72, "hand": "left", "channel": 0}
{"t": 13.2229, "source": "input", "event": "note_off", "note": 60, "name": "C4", "pc": 0, "velocity": 0, "hand": "right", "channel": 0}
{"t": 13.227, "source": "input", "event": "note_on", "note": 45, "name": "A2", "pc": 9, "velocity": 70, "hand": "left", "channel": 0}
{"t": 13.2425, "source": "input", "event": "note_off", "note": 52, "name": "E3", "pc": 4, "velocity": 0, "hand": "left", "channel": 0}
{"t": 13.6657, "source": "input", "event": "note_on", "note": 52, "name": "E3", "pc": 4, "velocity": 64, "hand": "left", "channel": 0}
{"t": 13.837, "source": "input", "event": "note_on", "note": 60, "name": "C4", "pc": 0, "velocity": 54, "hand": "right", "channel": 0}
{"t": 13.8484, "source": "input", "event": "note_off", "note": 59, "name": "B3", "pc": 11, "velocity": 0, "hand": "left", "channel": 0}
{"t": 14.5067, "source": "input", "event": "note_on", "note": 62, "name": "D4", "pc": 2, "velocity": 75, "hand": "right", "channel": 0}
{"t": 14.5177, "source": "input", "event": "note_off", "note": 60, "name": "C4", "pc": 0, "velocity": 0, "hand": "right", "channel": 0}
{"t": 14.7272, "source": "input", "event": "note_on", "note": 64, "name": "E4", "pc": 4, "velocity": 85, "hand": "right", "channel": 0}
{"t": 14.7313, "source": "input", "event": "note_off", "note": 52, "name": "E3", "pc": 4, "velocity": 0, "hand": "left", "channel": 0}
{"t": 14.7642, "source": "input", "event": "note_off", "note": 62, "name": "D4", "pc": 2, "velocity": 0, "hand": "right", "channel": 0}
{"t": 14.809, "source": "input", "event": "note_off", "note": 45, "name": "A2", "pc": 9, "velocity": 0, "hand": "left", "channel": 0}
{"t": 15.222, "source": "input", "event": "note_on", "note": 38, "name": "D2", "pc": 2, "velocity": 69, "hand": "left", "channel": 0}
{"t": 15.2483, "source": "input", "event": "note_off", "note": 64, "name": "E4", "pc": 4, "velocity": 0, "hand": "right", "channel": 0}
{"t": 15.2561, "source": "input", "event": "note_on", "note": 65, "name": "F4", "pc": 5, "velocity": 45, "hand": "right", "channel": 0}
{"t": 15.7095, "source": "input", "event": "note_on", "note": 45, "name": "A2", "pc": 9, "velocity": 36, "hand": "left", "channel": 0}
{"t": 16.1384, "source": "input", "event": "note_on", "note": 50, "name": "D3", "pc": 2, "velocity": 70, "hand": "left", "channel": 0}
{"t": 16.3658, "source": "input", "event": "note_on", "note": 62, "name": "D4", "pc": 2, "velocity": 82, "hand": "right", "channel": 0}
{"t": 16.3737, "source": "input", "event": "note_off", "note": 65, "name": "F4", "pc": 5, "velocity": 0, "hand": "right", "channel": 0}
{"t": 16.5927, "source": "input", "event": "note_on", "note": 65, "name": "F4", "pc": 5, "velocity": 54, "hand": "right", "channel": 0}
{"t": 16.5968, "source": "input", "event": "note_off", "note": 62, "name": "D4", "pc": 2, "velocity": 0, "hand": "right", "channel": 0}
{"t": 16.6865, "source": "input", "event": "note_off", "note": 38, "name": "D2", "pc": 2, "velocity": 0, "hand": "left", "channel": 0}
{"t": 17.014, "source": "input", "event": "note_off", "note": 50, "name": "D3", "pc": 2, "velocity": 0, "hand": "left", "channel": 0}
{"t": 17.0257, "source": "input", "event": "note_off", "note": 65, "name": "F4", "pc": 5, "velocity": 0, "hand": "right", "channel": 0}
{"t": 17.0297, "source": "input", "event": "note_on", "note": 64, "name": "E4", "pc": 4, "velocity": 84, "hand": "right", "channel": 0}
{"t": 17.0377, "source": "input", "event": "note_on", "note": 40, "name": "E2", "pc": 4, "velocity": 64, "hand": "left", "channel": 0}
{"t": 17.0719, "source": "input", "event": "note_off", "note": 45, "name": "A2", "pc": 9, "velocity": 0, "hand": "left", "channel": 0}
{"t": 17.5994, "source": "input", "event": "note_on", "note": 47, "name": "B2", "pc": 11, "velocity": 25, "hand": "left", "channel": 0}
{"t": 18.1153, "source": "input", "event": "note_on", "note": 65, "name": "F4", "pc": 5, "velocity": 73, "hand": "right", "channel": 0}
{"t": 18.1194, "source": "input", "event": "note_off", "note": 64, "name": "E4", "pc": 4, "velocity": 0, "hand": "right", "channel": 0}
{"t": 18.3352, "source": "input", "event": "note_on", "note": 64, "name": "E4", "pc": 4, "velocity": 60, "hand": "right", "channel": 0}
{"t": 18.3468, "source": "input", "event": "note_off", "note": 65, "name": "F4", "pc": 5, "velocity": 0, "hand": "right", "channel": 0}
{"t": 18.5309, "source": "input", "event": "note_off", "note": 64, "name": "E4", "pc": 4, "velocity": 0, "hand": "right", "channel": 0}
{"t": 18.5463, "source": "input", "event": "note_on", "note": 62, "name": "D4", "pc": 2, "velocity": 51, "hand": "right", "channel": 0}
{"t": 18.777, "source": "input", "event": "note_on", "note": 64, "name": "E4", "pc": 4, "velocity": 62, "hand": "right", "channel": 0}
{"t": 18.7848, "source": "input", "event": "note_on", "note": 52, "name": "E3", "pc": 4, "velocity": 45, "hand": "left", "channel": 0}
{"t": 18.7928, "source": "input", "event": "note_off", "note": 62, "name": "D4", "pc": 2, "velocity": 0, "hand": "right", "channel": 0}
{"t": 19.2055, "source": "input", "event": "note_off", "note": 64, "name": "E4", "pc": 4, "velocity": 0, "hand": "right", "channel": 0}
{"t": 19.5942, "source": "input", "event": "note_on", "note": 64, "name": "E4", "pc": 4, "velocity": 79, "hand": "right", "channel": 0}
{"t": 19.7258, "source": "input", "event": "note_off", "note": 64, "name": "E4", "pc": 4, "velocity": 0, "hand": "right", "channel": 0}
{"t": 19.8941, "source": "input", "event": "note_on", "note": 64, "name": "E4", "pc": 4, "velocity": 78, "hand": "right", "channel": 0}
{"t": 20.0695, "source": "input", "event": "note_off", "note": 52, "name": "E3", "pc": 4, "velocity": 0, "hand": "left", "channel": 0}
{"t": 20.1256, "source": "input", "event": "note_off", "note": 47, "name": "B2", "pc": 11, "velocity": 0, "hand": "left", "channel": 0}
{"t": 20.1507, "source": "input", "event": "note_off", "note": 40, "name": "E2", "pc": 4, "velocity": 0, "hand": "left", "channel": 0}
{"t": 20.1888, "source": "input", "event": "note_off", "note": 64, "name": "E4", "pc": 4, "velocity": 0, "hand": "right", "channel": 0}
{"t": 20.1928, "source": "input", "event": "note_on", "note": 65, "name": "F4", "pc": 5, "velocity": 74, "hand": "right", "channel": 0}
{"t": 20.4597, "source": "input", "event": "note_on", "note": 67, "name": "G4", "pc": 7, "velocity": 87, "hand": "right", "channel": 0}
{"t": 20.4638, "source": "input", "event": "note_on", "note": 36, "name": "C2", "pc": 0, "velocity": 73, "hand": "left", "channel": 0}
{"t": 20.4906, "source": "input", "event": "note_off", "note": 65, "name": "F4", "pc": 5, "velocity": 0, "hand": "right", "channel": 0}
{"t": 20.8489, "source": "input", "event": "note_on", "note": 43, "name": "G2", "pc": 7, "velocity": 74, "hand": "left", "channel": 0}
{"t": 20.86, "source": "input", "event": "note_on", "note": 65, "name": "F4", "pc": 5, "velocity": 92, "hand": "right", "channel": 0}
{"t": 20.9197, "source": "input", "event": "note_off", "note": 67, "name": "G4", "pc": 7, "velocity": 0, "hand": "right", "channel": 0}
{"t": 21.0859, "source": "input", "event": "note_off", "note": 65, "name": "F4", "pc": 5, "velocity": 0, "hand": "right", "channel": 0}
{"t": 21.0975, "source": "input", "event": "note_on", "note": 64, "name": "E4", "pc": 4, "velocity": 88, "hand": "right", "channel": 0}
{"t": 21.3248, "source": "input", "event": "note_on", "note": 48, "name": "C3", "pc": 0, "velocity": 40, "hand": "left", "channel": 0}
{"t": 21.5205, "source": "input", "event": "note_off", "note": 64, "name": "E4", "pc": 4, "velocity": 0, "hand": "right", "channel": 0}
{"t": 21.5276, "source": "input", "event": "note_on", "note": 62, "name": "D4", "pc": 2, "velocity": 83, "hand": "right", "channel": 0}
{"t": 21.9291, "source": "input", "event": "note_off", "note": 36, "name": "C2", "pc": 0, "velocity": 0, "hand": "left", "channel": 0}
{"t": 22.1487, "source": "input", "event": "note_on", "note": 60, "name": "C4", "pc": 0, "velocity": 75, "hand": "right", "channel": 0}
{"t": 22.1528, "source": "input", "event": "note_on", "note": 38, "name": "D2", "pc": 2, "velocity": 76, "hand": "left", "channel": 0}
{"t": 22.1753, "source": "input", "event": "note_off", "note": 62, "name": "D4", "pc": 2, "velocity": 0, "hand": "right", "channel": 0}
{"t": 22.1794, "source": "input", "event": "note_off", "note": 48, "name": "C3", "pc": 0, "velocity": 0, "hand": "left", "channel": 0}
{"t": 22.2283, "source": "input", "event": "note_off", "note": 43, "name": "G2", "pc": 7, "velocity": 0, "hand": "left", "channel": 0}
{"t": 22.5862, "source": "input", "event": "note_on", "note": 45, "name": "A2", "pc": 9, "velocity": 36, "hand": "left", "channel": 0}
{"t": 23.0105, "source": "input", "event": "note_on", "note": 50, "name": "D3", "pc": 2, "velocity": 19, "hand": "left", "channel": 0}
{"t": 23.0788, "source": "input", "event": "note_off", "note": 60, "name": "C4", "pc": 0, "velocity": 0, "hand": "right", "channel": 0}
{"t": 23.2021, "source": "input", "event": "note_on", "note": 60, "name": "C4", "pc": 0, "velocity": 67, "hand": "right", "channel": 0}
{"t": 23.2763, "source": "input", "event": "note_off", "note": 60, "name": "C4", "pc": 0, "velocity": 0, "hand": "right", "channel": 0}
{"t": 23.4035, "source": "input", "event": "note_on", "note": 60, "name": "C4", "pc": 0, "velocity": 73, "hand": "right", "channel": 0}
{"t": 23.6007, "source": "input", "event": "note_off", "note": 38, "name": "D2", "pc": 2, "velocity": 0, "hand": "left", "channel": 0}
{"t": 23.6083, "source": "input", "event": "note_on", "note": 62, "name": "D4", "pc": 2, "velocity": 69, "hand": "right", "channel": 0}
{"t": 23.6229, "source": "input", "event": "note_off", "note": 60, "name": "C4", "pc": 0, "velocity": 0, "hand": "right", "channel": 0}
{"t": 23.6913, "source": "input", "event": "note_off", "note": 50, "name": "D3", "pc": 2, "velocity": 0, "hand": "left", "channel": 0}
{"t": 23.836, "source": "input", "event": "note_on", "note": 64, "name": "E4", "pc": 4, "velocity": 85, "hand": "right", "channel": 0}
{"t": 23.8436, "source": "input", "event": "note_on", "note": 40, "name": "E2", "pc": 4, "velocity": 76, "hand": "left", "channel": 0}
{"t": 23.8553, "source": "input", "event": "note_off", "note": 62, "name": "D4", "pc": 2, "velocity": 0, "hand": "right", "channel": 0}
{"t": 23.8655, "source": "input", "event": "note_off", "note": 45, "name": "A2", "pc": 9, "velocity": 0, "hand": "left", "channel": 0}
{"t": 24.2323, "source": "input", "event": "note_on", "note": 47, "name": "B2", "pc": 11, "velocity": 76, "hand": "left", "channel": 0}
{"t": 24.2476, "source": "input", "event": "note_on", "note": 62, "name": "D4", "pc": 2, "velocity": 90, "hand": "right", "channel": 0}
{"t": 24.2743, "source": "input", "event": "note_off", "note": 64, "name": "E4", "pc": 4, "velocity": 0, "hand": "right", "channel": 0}
{"t": 24.4424, "source": "input", "event": "note_off", "note": 62, "name": "D4", "pc": 2, "velocity": 0, "hand": "right", "channel": 0}
{"t": 24.4501, "source": "input", "event": "note_on", "note": 60, "name": "C4", "pc": 0, "velocity": 82, "hand": "right", "channel": 0}
{"t": 24.6572, "source": "input", "event": "note_on", "note": 52, "name": "E3", "pc": 4, "velocity": 73, "hand": "left", "channel": 0}
{"t": 24.8505, "source": "input", "event": "note_off", "note": 60, "name": "C4", "pc": 0, "velocity": 0, "hand": "right", "channel": 0}
{"t": 24.8765, "source": "input", "event": "note_on", "note": 59, "name": "B3", "pc": 11, "velocity": 78, "hand": "left", "channel": 0}
{"t": 25.1872, "source": "input", "event": "note_off", "note": 40, "name": "E2", "pc": 4, "velocity": 0, "hand": "left", "channel": 0}
{"t": 25.4623, "source": "input", "event": "note_on", "note": 41, "name": "F2", "pc": 5, "velocity": 78, "hand": "left", "channel": 0}
{"t": 25.4623, "source": "input", "event": "note_on", "note": 57, "name": "A3", "pc": 9, "velocity": 80, "hand": "left", "channel": 0}
{"t": 25.4777, "source": "input", "event": "note_off", "note": 52, "name": "E3", "pc": 4, "velocity": 0, "hand": "left", "channel": 0}
{"t": 25.4969, "source": "input", "event": "note_off", "note": 47, "name": "B2", "pc": 11, "velocity": 0, "hand": "left", "channel": 0}
{"t": 25.5116, "source": "input", "event": "note_off", "note": 59, "name": "B3", "pc": 11, "velocity": 0, "hand": "left", "channel": 0}
{"t": 25.877, "source": "input", "event": "note_on", "note": 48, "name": "C3", "pc": 0, "velocity": 56, "hand": "left", "channel": 0}
{"t": 26.2944, "source": "input", "event": "note_on", "note": 53, "name": "F3", "pc": 5, "velocity": 58, "hand": "left", "channel": 0}
{"t": 26.3245, "source": "input", "event": "note_off", "note": 57, "name": "A3", "pc": 9, "velocity": 0, "hand": "left", "channel": 0}
{"t": 26.8558, "source": "input", "event": "note_off", "note": 53, "name": "F3", "pc": 5, "velocity": 0, "hand": "left", "channel": 0}
{"t": 26.8749, "source": "input", "event": "note_off", "note": 48, "name": "C3", "pc": 0, "velocity": 0, "hand": "left", "channel": 0}
{"t": 26.8866, "source": "input", "event": "note_off", "note": 41, "name": "F2", "pc": 5, "velocity": 0, "hand": "left", "channel": 0}
