{"t": 4.8603, "source": "input", "event": "note_on", "note": 76, "name": "E5", "pc": 4, "velocity": 92, "hand": "right", "channel": 0}
{"t": 5.1597, "source": "input", "event": "note_off", "note": 76, "name": "E5", "pc": 4, "velocity": 0, "hand": "right", "channel": 0}
{"t": 5.2643, "source": "input", "event": "note_on", "note": 76, "name": "E5", "pc": 4, "velocity": 78, "hand": "right", "channel": 0}
{"t": 5.7157, "source": "input", "event": "note_on", "note": 77, "name": "F5", "pc": 5, "velocity": 78, "hand": "right", "channel": 0}
{"t": 5.7387, "source": "input", "event": "note_off", "note": 76, "name": "E5", "pc": 4, "velocity": 0, "hand": "right", "channel": 0}
{"t": 5.9675, "source": "input", "event": "note_on", "note": 79, "name": "G5", "pc": 7, "velocity": 91, "hand": "right", "channel": 0}
{"t": 5.9981, "source": "input", "event": "note_off", "note": 77, "name": "F5", "pc": 5, "velocity": 0, "hand": "right", "channel": 0}
{"t": 6.0098, "source": "input", "event": "note_on", "note": 36, "name": "C2", "pc": 0, "velocity": 47, "hand": "left", "channel": 0}
{"t": 6.4366, "source": "input", "event": "note_on", "note": 77, "name": "F5", "pc": 5, "velocity": 90, "hand": "right", "channel": 0}
{"t": 6.4443, "source": "input", "event": "note_on", "note": 43, "name": "G2", "pc": 7, "velocity": 57, "hand": "left", "channel": 0}
{"t": 6.4858, "source": "input", "event": "note_off", "note": 79, "name": "G5", "pc": 7, "velocity": 0, "hand": "right", "channel": 0}
{"t": 6.6596, "source": "input", "event": "note_off", "note": 77, "name": "F5", "pc": 5, "velocity": 0, "hand": "right", "channel": 0}
{"t": 6.6788, "source": "input", "event": "note_on", "note": 76, "name": "E5", "pc": 4, "velocity": 96, "hand": "right", "channel": 0}
{"t": 6.8952, "source": "input", "event": "note_on", "note": 48, "name": "C3", "pc": 0, "velocity": 70, "hand": "left", "channel": 0}
{"t": 7.1176, "source": "input", "event": "note_on", "note": 74, "name": "D5", "pc": 2, "velocity": 85, "hand": "right", "channel": 0}
{"t": 7.1257, "source": "input", "event": "note_off", "note": 76, "name": "E5", "pc": 4, "velocity": 0, "hand": "right", "channel": 0}
{"t": 7.4275, "source": "input", "event": "note_off", "note": 36, "name": "C2", "pc": 0, "velocity": 0, "hand": "left", "channel": 0}
{"t": 7.4768, "source": "input", "event": "note_off", "note": 43, "name": "G2", "pc": 7, "velocity": 0, "hand": "left", "channel": 0}
{"t": 7.7518, "source": "input", "event": "note_off", "note": 48, "name": "C3", "pc": 0, "velocity": 0, "hand": "left", "channel": 0}
{"t": 7.7559, "source": "input", "event": "note_on", "note": 72, "name": "C5", "pc": 0, "velocity": 84, "hand": "right", "channel": 0}
{"t": 7.7559, "source": "input", "event": "note_off", "note": 74, "name": "D5", "pc": 2, "velocity": 0, "hand": "right", "channel": 0}
{"t": 7.7741, "source": "input", "event": "note_on", "note": 45, "name": "A2", "pc": 9, "velocity": 61, "hand": "left", "channel": 0}
{"t": 8.2304, "source": "input", "event": "note_on", "note": 52, "name": "E3", "pc": 4, "velocity": 42, "hand": "left", "channel": 0}
{"t": 8.6413, "source": "input", "event": "note_on", "note": 57, "name": "A3", "pc": 9, "velocity": 75, "hand": "left", "channel": 0}
{"t": 8.7377, "source": "input", "event": "note_off", "note": 72, "name": "C5", "pc": 0, "velocity": 0, "hand": "right", "channel": 0}
{"t": 8.875, "source": "input", "event": "note_on", "note": 72, "name": "C5", "pc": 0, "velocity": 76, "hand": "right", "channel": 0}
{"t": 8.9567, "source": "input", "event": "note_off", "note": 72, "name": "C5", "pc": 0, "velocity": 0, "hand": "right", "channel": 0}
{"t": 9.0865, "source": "input", "event": "note_on", "note": 72, "name": "C5", "pc": 0, "velocity": 84, "hand": "right", "channel": 0}
{"t": 9.1774, "source": "input", "event": "note_off", "note": 57, "name": "A3", "pc": 9, "velocity": 0, "hand": "left", "channel": 0}
{"t": 9.2254, "source": "input", "event": "note_off", "note": 52, "name": "E3", "pc": 4, "velocity": 0, "hand": "left", "channel": 0}
{"t": 9.2468, "source": "input", "event": "note_off", "note": 45, "name": "A2", "pc": 9, "velocity": 0, "hand": "left", "channel": 0}
{"t": 9.2661, "source": "input", "event": "note_on", "note": 74, "name": "D5", "pc": 2, "velocity": 81, "hand": "right", "channel": 0}
{"t": 9.2807, "source": "input", "event": "note_off", "note": 72, "name": "C5", "pc": 0, "velocity": 0, "hand": "right", "channel": 0}
{"t": 9.5164, "source": "input", "event": "note_on", "note": 76, "name": "E5", "pc": 4, "velocity": 93, "hand": "right", "channel": 0}
{"t": 9.5164, "source": "input", "event": "note_off", "note": 74, "name": "D5", "pc": 2, "velocity": 0, "hand": "right", "channel": 0}
{"t": 9.5504, "source": "input", "event": "note_on", "note": 40, "name": "E2", "pc": 4, "velocity": 57, "hand": "left", "channel": 0}
{"t": 9.9548, "source": "input", "event": "note_on", "note": 74, "name": "D5", "pc": 2, "velocity": 92, "hand": "right", "channel": 0}
{"t": 9.9849, "source": "input", "event": "note_on", "note": 47, "name": "B2", "pc": 11, "velocity": 53, "hand": "left", "channel": 0}
{"t": 10.0039, "source": "input", "event": "note_off", "note": 76, "name": "E5", "pc": 4, "velocity": 0, "hand": "right", "channel": 0}
{"t": 10.1425, "source": "input", "event": "note_off", "note": 74, "name": "D5", "pc": 2, "velocity": 0, "hand": "right", "channel": 0}
{"t": 10.177, "source": "input", "event": "note_on", "note": 72, "name": "C5", "pc": 0, "velocity": 83, "hand": "right", "channel": 0}
{"t": 10.4001, "source": "input", "event": "note_on", "note": 52, "name": "E3", "pc": 4, "velocity": 79, "hand": "left", "channel": 0}
{"t": 10.6155, "source": "input", "event": "note_on", "note": 71, "name": "B4", "pc": 11, "velocity": 78, "hand": "right", "channel": 0}
{"t": 10.6272, "source": "input", "event": "note_off", "note": 72, "name": "C5", "pc": 0, "velocity": 0, "hand": "right", "channel": 0}
{"t": 10.9833, "source": "input", "event": "note_off", "note": 40, "name": "E2", "pc": 4, "velocity": 0, "hand": "left", "channel": 0}
{"t": 11.2495, "source": "input", "event": "note_on", "note": 69, "name": "A4", "pc": 9, "velocity": 82, "hand": "right", "channel": 0}
{"t": 11.2495, "source": "input", "event": "note_off", "note": 52, "name": "E3", "pc": 4, "velocity": 0, "hand": "left", "channel": 0}
{"t": 11.2495, "source": "input", "event": "note_on", "note": 41, "name": "F2", "pc": 5, "velocity": 62, "hand": "left", "channel": 0}
{"t": 11.2754, "source": "input", "event": "note_off", "note": 71, "name": "B4", "pc": 11, "velocity": 0, "hand": "right", "channel": 0}
{"t": 11.2909, "source": "input", "event": "note_off", "note": 47, "name": "B2", "pc": 11, "velocity": 0, "hand": "left", "channel": 0}
{"t": 11.6994, "source": "input", "event": "note_on", "note": 48, "name": "C3", "pc": 0, "velocity": 46, "hand": "left", "channel": 0}
{"t": 12.1418, "source": "input", "event": "note_on", "note": 53, "name": "F3", "pc": 5, "velocity": 19, "hand": "left", "channel": 0}
{"t": 12.653, "source": "input", "event": "note_off", "note": 41, "name": "F2", "pc": 5, "velocity": 0, "hand": "left", "channel": 0}
{"t": 12.9164, "source": "input", "event": "note_on", "note": 43, "name": "G2", "pc": 7, "velocity": 76, "hand": "left", "channel": 0}
{"t": 12.9436, "source": "input", "event": "note_off", "note": 53, "name": "F3", "pc": 5, "velocity": 0, "hand": "left", "channel": 0}
{"t": 12.9436, "source": "input", "event": "note_off", "note": 48, "name": "C3", "pc": 0, "velocity": 0, "hand": "left", "channel": 0}
{"t": 12.959, "source": "input", "event": "note_on", "note": 67, "name": "G4", "pc": 7, "velocity": 83, "hand": "right", "channel": 0}
{"t": 12.9968, "source": "input", "event": "note_off", "note": 69, "name": "A4", "pc": 9, "velocity": 0, "hand": "right", "channel": 0}
{"t": 13.3921, "source": "input", "event": "note_on", "note": 50, "name": "D3", "pc": 2, "velocity": 53, "hand": "left", "channel": 0}
{"t": 13.4544, "source": "input", "event": "note_off", "note": 67, "name": "G4", "pc": 7, "velocity": 0, "hand": "right", "channel": 0}
{"t": 13.5759, "source": "input", "event": "note_on", "note": 67, "name": "G4", "pc": 7, "velocity": 84, "hand": "right", "channel": 0}
{"t": 13.7474, "source": "input", "event": "note_off", "note": 67, "name": "G4", "pc": 7, "velocity": 0, "hand": "right", "channel": 0}
{"t": 13.7989, "source": "input", "event": "note_on", "note": 55, "name": "G3", "pc": 7, "velocity": 75, "hand": "left", "channel": 0}
{"t": 13.8106, "source": "input", "event": "note_on", "note": 69, "name": "A4", "pc": 9, "velocity": 84, "hand": "right", "channel": 0}
{"t": 14.0108, "source": "input", "event": "note_on", "note": 71, "name": "B4", "pc": 11, "velocity": 95, "hand": "right", "channel": 0}
{"t": 14.0412, "source": "input", "event": "note_off", "note": 69, "name": "A4", "pc": 9, "velocity": 0, "hand": "right", "channel": 0}
{"t": 14.2654, "source": "input", "event": "note_off", "note": 55, "name": "G3", "pc": 7, "velocity": 0, "hand": "left", "channel": 0}
{"t": 14.3406, "source": "input", "event": "note_off", "note": 50, "name": "D3", "pc": 2, "velocity": 0, "hand": "left", "channel": 0}
{"t": 14.3638, "source": "input", "event": "note_off", "note": 43, "name": "G2", "pc": 7, "velocity": 0, "hand": "left", "channel": 0}
{"t": 14.627, "source": "input", "event": "note_on", "note": 40, "name": "E2", "pc": 4, "velocity": 78, "hand": "left", "channel": 0}
{"t": 14.6462, "source": "input", "event": "note_off", "note": 71, "name": "B4", "pc": 11, "velocity": 0, "hand": "right", "channel": 0}
{"t": 14.6462, "source": "input", "event": "note_on", "note": 64, "name": "E4", "pc": 4, "velocity": 85, "hand": "right", "channel": 0}
{"t": 15.0991, "source": "input", "event": "note_on", "note": 47, "name": "B2", "pc": 11, "velocity": 50, "hand": "left", "channel": 0}
{"t": 15.1966, "source": "input", "event": "note_off", "note": 64, "name": "E4", "pc": 4, "velocity": 0, "hand": "right", "channel": 0}
{"t": 15.2568, "source": "input", "event": "note_on", "note": 69, "name": "A4", "pc": 9, "velocity": 69, "hand": "right", "channel": 0}
{"t": 15.4618, "source": "input", "event": "note_on", "note": 52, "name": "E3", "pc": 4, "velocity": 60, "hand": "left", "channel": 0}
{"t": 15.4698, "source": "input", "event": "note_on", "note": 71, "name": "B4", "pc": 11, "velocity": 77, "hand": "right", "channel": 0}
{"t": 15.5033, "source": "input", "event": "note_off", "note": 69, "name": "A4", "pc": 9, "velocity": 0, "hand": "right", "channel": 0}
{"t": 15.6965, "source": "input", "event": "note_on", "note": 72, "name": "C5", "pc": 0, "velocity": 81, "hand": "right", "channel": 0}
{"t": 15.7529, "source": "input", "event": "note_off", "note": 71, "name": "B4", "pc": 11, "velocity": 0, "hand": "right", "channel": 0}
{"t": 15.8168, "source": "input", "event": "note_off", "note": 72, "name": "C5", "pc": 0, "velocity": 0, "hand": "right", "channel": 0}
{"t": 15.9242, "source": "input", "event": "note_on", "note": 74, "name": "D5", "pc": 2, "velocity": 106, "hand": "right", "channel": 0}
{"t": 16.0141, "source": "input", "event": "note_off", "note": 40, "name": "E2", "pc": 4, "velocity": 0, "hand": "left", "channel": 0}
{"t": 16.1298, "source": "input", "event": "note_off", "note": 47, "name": "B2", "pc": 11, "velocity": 0, "hand": "left", "channel": 0}
{"t": 16.1376, "source": "input", "event": "note_on", "note": 72, "name": "C5", "pc": 0, "velocity": 96, "hand": "right", "channel": 0}
{"t": 16.153, "source": "input", "event": "note_off", "note": 74, "name": "D5", "pc": 2, "velocity": 0, "hand": "right", "channel": 0}
{"t": 16.3356, "source": "input", "event": "note_off", "note": 52, "name": "E3", "pc": 4, "velocity": 0, "hand": "left", "channel": 0}
{"t": 16.3661, "source": "input", "event": "note_on", "note": 45, "name": "A2", "pc": 9, "velocity": 68, "hand": "left", "channel": 0}
{"t": 16.3735, "source": "input", "event": "note_on", "note": 71, "name": "B4", "pc": 11, "velocity": 85, "hand": "right", "channel": 0}
{"t": 16.3776, "source": "input", "event": "note_off", "note": 72, "name": "C5", "pc": 0, "velocity": 0, "hand": "right", "channel": 0}
{"t": 16.8181, "source": "input", "event": "note_on", "note": 52, "name": "E3", "pc": 4, "velocity": 48, "hand": "left", "channel": 0}
{"t": 17.0188, "source": "input", "event": "note_on", "note": 72, "name": "C5", "pc": 0, "velocity": 69, "hand": "right", "channel": 0}
{"t": 17.0419, "source": "input", "event": "note_off", "note": 71, "name": "B4", "pc": 11, "velocity": 0, "hand": "right", "channel": 0}
{"t": 17.2469, "source": "input", "event": "note_on", "note": 57, "name": "A3", "pc": 9, "velocity": 53, "hand": "left", "channel": 0}
{"t": 17.5664, "source": "input", "event": "note_on", "note": 74, "name": "D5", "pc": 2, "velocity": 75, "hand": "right", "channel": 0}
{"t": 17.6226, "source": "input", "event": "note_off", "note": 72, "name": "C5", "pc": 0, "velocity": 0, "hand": "right", "channel": 0}
{"t": 17.6636, "source": "input", "event": "note_off", "note": 57, "name": "A3", "pc": 9, "velocity": 0, "hand": "left", "channel": 0}
{"t": 17.7314, "source": "input", "event": "note_off", "note": 52, "name": "E3", "pc": 4, "velocity": 0, "hand": "left", "channel": 0}
{"t": 17.7913, "source": "input", "event": "note_off", "note": 45, "name": "A2", "pc": 9, "velocity": 0, "hand": "left", "channel": 0}
{"t": 17.8067, "source": "input", "event": "note_on", "note": 76, "name": "E5", "pc": 4, "velocity": 77, "hand": "right", "channel": 0}
{"t": 17.8557, "source": "input", "event": "note_off", "note": 74, "name": "D5", "pc": 2, "velocity": 0, "hand": "right", "channel": 0}
{"t": 17.9269, "source": "input", "event": "note_off", "note": 76, "name": "E5", "pc": 4, "velocity": 0, "hand": "right", "channel": 0}
{"t": 18.039, "source": "input", "event": "note_on", "note": 38, "name": "D2", "pc": 2, "velocity": 70, "hand": "left", "channel": 0}
{"t": 18.0499, "source": "input", "event": "note_on", "note": 77, "name": "F5", "pc": 5, "velocity": 100, "hand": "right", "channel": 0}
{"t": 18.5442, "source": "input", "event": "note_on", "note": 45, "name": "A2", "pc": 9, "velocity": 19, "hand": "left", "channel": 0}
{"t": 18.9161, "source": "input", "event": "note_on", "note": 50, "name": "D3", "pc": 2, "velocity": 48, "hand": "left", "channel": 0}
{"t": 19.128, "source": "input", "event": "note_on", "note": 74, "name": "D5", "pc": 2, "velocity": 85, "hand": "right", "channel": 0}
{"t": 19.1547, "source": "input", "event": "note_off", "note": 77, "name": "F5", "pc": 5, "velocity": 0, "hand": "right", "channel": 0}
{"t": 19.3531, "source": "input", "event": "note_on", "note": 77, "name": "F5", "pc": 5, "velocity": 95, "hand": "right", "channel": 0}
{"t": 19.3611, "source": "input", "event": "note_off", "note": 74, "name": "D5", "pc": 2, "velocity": 0, "hand": "right", "channel": 0}
{"t": 19.473, "source": "input", "event": "note_off", "note": 38, "name": "D2", "pc": 2, "velocity": 0, "hand": "left", "channel": 0}
{"t": 19.7863, "source": "input", "event": "note_on", "note": 76, "name": "E5", "pc": 4, "velocity": 99, "hand": "right", "channel": 0}
{"t": 19.7905, "source": "input", "event": "note_on", "note": 40, "name": "E2", "pc": 4, "velocity": 74, "hand": "left", "channel": 0}
{"t": 19.8014, "source": "input", "event": "note_off", "note": 50, "name": "D3", "pc": 2, "velocity": 0, "hand": "left", "channel": 0}
{"t": 19.8199, "source": "input", "event": "note_off", "note": 77, "name": "F5", "pc": 5, "velocity": 0, "hand": "right", "channel": 0}
{"t": 19.84, "source": "input", "event": "note_off", "note": 45, "name": "A2", "pc": 9, "velocity": 0, "hand": "left", "channel": 0}
{"t": 20.2178, "source": "input", "event": "note_on", "note": 74, "name": "D5", "pc": 2, "velocity": 84, "hand": "right", "channel": 0}
{"t": 20.2178, "source": "input", "event": "note_on", "note": 47, "name": "B2", "pc": 11, "velocity": 58, "hand": "left", "channel": 0}
{"t": 20.2367, "source": "input", "event": "note_off", "note": 76, "name": "E5", "pc": 4, "velocity": 0, "hand": "right", "channel": 0}
{"t": 20.422, "source": "input", "event": "note_on", "note": 76, "name": "E5", "pc": 4, "velocity": 85, "hand": "right", "channel": 0}
{"t": 20.422, "source": "input", "event": "note_off", "note": 74, "name": "D5", "pc": 2, "velocity": 0, "hand": "right", "channel": 0}
{"t": 20.6512, "source": "input", "event": "note_on", "note": 52, "name": "E3", "pc": 4, "velocity": 72, "hand": "left", "channel": 0}
{"t": 20.8344, "source": "input", "event": "note_on", "note": 77, "name": "F5", "pc": 5, "velocity": 87, "hand": "right", "channel": 0}
{"t": 20.8613, "source": "input", "event": "note_off", "note": 76, "name": "E5", "pc": 4, "velocity": 0, "hand": "right", "channel": 0}
{"t": 21.0422, "source": "input", "event": "note_on", "note": 76, "name": "E5", "pc": 4, "velocity": 78, "hand": "right", "channel": 0}
{"t": 21.0763, "source": "input", "event": "note_off", "note": 77, "name": "F5", "pc": 5, "velocity": 0, "hand": "right", "channel": 0}
{"t": 21.221, "source": "input", "event": "note_off", "note": 76, "name": "E5", "pc": 4, "velocity": 0, "hand": "right", "channel": 0}
{"t": 21.2251, "source": "input", "event": "note_on", "note": 74, "name": "D5", "pc": 2, "velocity": 70, "hand": "right", "channel": 0}
{"t": 21.2442, "source": "input", "event": "note_off", "note": 40, "name": "E2", "pc": 4, "velocity": 0, "hand": "left", "channel": 0}
{"t": 21.3973, "source": "input", "event": "note_off", "note": 52, "name": "E3", "pc": 4, "velocity": 0, "hand": "left", "channel": 0}
{"t": 21.4619, "source": "input", "event": "note_on", "note": 76, "name": "E5", "pc": 4, "velocity": 55, "hand": "right", "channel": 0}
{"t": 21.466, "source": "input", "event": "note_off", "note": 74, "name": "D5", "pc": 2, "velocity": 0, "hand": "right", "channel": 0}
{"t": 21.4737, "source": "input", "event": "note_on", "note": 40, "name": "E2", "pc": 4, "velocity": 59, "hand": "left", "channel": 0}
{"t": 21.53, "source": "input", "event": "note_off", "note": 47, "name": "B2", "pc": 11, "velocity": 0, "hand": "left", "channel": 0}
{"t": 21.9471, "source": "input", "event": "note_on", "note": 47, "name": "B2", "pc": 11, "velocity": 54, "hand": "left", "channel": 0}
{"t": 21.9844, "source": "input", "event": "note_off", "note": 76, "name": "E5", "pc": 4, "velocity": 0, "hand": "right", "channel": 0}
{"t": 22.2655, "source": "input", "event": "note_on", "note": 76, "name": "E5", "pc": 4, "velocity": 96, "hand": "right", "channel": 0}
{"t": 22.3599, "source": "input", "event": "note_off", "note": 76, "name": "E5", "pc": 4, "velocity": 0, "hand": "right", "channel": 0}
{"t": 22.4488, "source": "input", "event": "note_on", "note": 76, "name": "E5", "pc": 4, "velocity": 95, "hand": "right", "channel": 0}
{"t": 22.4605, "source": "input", "event": "note_on", "note": 52, "name": "E3", "pc": 4, "velocity": 78, "hand": "left", "channel": 0}
{"t": 22.6844, "source": "input", "event": "note_off", "note": 76, "name": "E5", "pc": 4, "velocity": 0, "hand": "right", "channel": 0}
{"t": 22.7519, "source": "input", "event": "note_on", "note": 76, "name": "E5", "pc": 4, "velocity": 97, "hand": "right", "channel": 0}
{"t": 23.0817, "source": "input", "event": "note_off", "note": 52, "name": "E3", "pc": 4, "velocity": 0, "hand": "left", "channel": 0}
{"t": 23.0858, "source": "input", "event": "note_off", "note": 76, "name": "E5", "pc": 4, "velocity": 0, "hand": "right", "channel": 0}
{"t": 23.1011, "source": "input", "event": "note_on", "note": 77, "name": "F5", "pc": 5, "velocity": 86, "hand": "right", "channel": 0}
{"t": 23.1458, "source": "input", "event": "note_off", "note": 47, "name": "B2", "pc": 11, "velocity": 0, "hand": "left", "channel": 0}
{"t": 23.1981, "source": "input", "event": "note_off", "note": 40, "name": "E2", "pc": 4, "velocity": 0, "hand": "left", "channel": 0}
{"t": 23.3329, "source": "input", "event": "note_on", "note": 36, "name": "C2", "pc": 0, "velocity": 89, "hand": "left", "channel": 0}
{"t": 23.3479, "source": "input", "event": "note_on", "note": 79, "name": "G5", "pc": 7, "velocity": 108, "hand": "right", "channel": 0}
{"t": 23.3748, "source": "input", "event": "note_off", "note": 77, "name": "F5", "pc": 5, "velocity": 0, "hand": "right", "channel": 0}
{"t": 23.7421, "source": "input", "event": "note_on", "note": 77, "name": "F5", "pc": 5, "velocity": 103, "hand": "right", "channel": 0}
{"t": 23.7498, "source": "input", "event": "note_on", "note": 43, "name": "G2", "pc": 7, "velocity": 85, "hand": "left", "channel": 0}
{"t": 23.7834, "source": "input", "event": "note_off", "note": 79, "name": "G5", "pc": 7, "velocity": 0, "hand": "right", "channel": 0}
{"t": 23.9329, "source": "input", "event": "note_off", "note": 77, "name": "F5", "pc": 5, "velocity": 0, "hand": "right", "channel": 0}
{"t": 23.9516, "source": "input", "event": "note_on", "note": 76, "name": "E5", "pc": 4, "velocity": 106, "hand": "right", "channel": 0}
{"t": 24.1935, "source": "input", "event": "note_on", "note": 48, "name": "C3", "pc": 0, "velocity": 70, "hand": "left", "channel": 0}
{"t": 24.3785, "source": "input", "event": "note_on", "note": 74, "name": "D5", "pc": 2, "velocity": 87, "hand": "right", "channel": 0}
{"t": 24.3861, "source": "input", "event": "note_off", "note": 76, "name": "E5", "pc": 4, "velocity": 0, "hand": "right", "channel": 0}
{"t": 24.6489, "source": "input", "event": "note_off", "note": 36, "name": "C2", "pc": 0, "velocity": 0, "hand": "left", "channel": 0}
{"t": 24.7175, "source": "input", "event": "note_off", "note": 43, "name": "G2", "pc": 7, "velocity": 0, "hand": "left", "channel": 0}
{"t": 24.9905, "source": "input", "event": "note_on", "note": 45, "name": "A2", "pc": 9, "velocity": 72, "hand": "left", "channel": 0}
{"t": 24.9947, "source": "input", "event": "note_on", "note": 72, "name": "C5", "pc": 0, "velocity": 90, "hand": "right", "channel": 0}
{"t": 25.009, "source": "input", "event": "note_off", "note": 74, "name": "D5", "pc": 2, "velocity": 0, "hand": "right", "channel": 0}
{"t": 25.0378, "source": "input", "event": "note_off", "note": 48, "name": "C3", "pc": 0, "velocity": 0, "hand": "left", "channel": 0}
{"t": 25.4403, "source": "input", "event": "note_on", "note": 52, "name": "E3", "pc": 4, "velocity": 45, "hand": "left", "channel": 0}
{"t": 25.883, "source": "input", "event": "note_on", "note": 57, "name": "A3", "pc": 9, "velocity": 61, "hand": "left", "channel": 0}
{"t": 25.9568, "source": "input", "event": "note_off", "note": 72, "name": "C5", "pc": 0, "velocity": 0, "hand": "right", "channel": 0}
{"t": 26.0856, "source": "input", "event": "note_on", "note": 72, "name": "C5", "pc": 0, "velocity": 80, "hand": "right", "channel": 0}
{"t": 26.1671, "source": "input", "event": "note_off", "note": 72, "name": "C5", "pc": 0, "velocity": 0, "hand": "right", "channel": 0}
{"t": 26.2873, "source": "input", "event": "note_on", "note": 72, "name": "C5", "pc": 0, "velocity": 88, "hand": "right", "channel": 0}
{"t": 26.354, "source": "input", "event": "note_off", "note": 57, "name": "A3", "pc": 9, "velocity": 0, "hand": "left", "channel": 0}
{"t": 26.4392, "source": "input", "event": "note_off", "note": 52, "name": "E3", "pc": 4, "velocity": 0, "hand": "left", "channel": 0}
{"t": 26.4844, "source": "input", "event": "note_on", "note": 74, "name": "D5", "pc": 2, "velocity": 92, "hand": "right", "channel": 0}
{"t": 26.4885, "source": "input", "event": "note_off", "note": 45, "name": "A2", "pc": 9, "velocity": 0, "hand": "left", "channel": 0}
{"t": 26.5113, "source": "input", "event": "note_off", "note": 72, "name": "C5", "pc": 0, "velocity": 0, "hand": "right", "channel": 0}
{"t": 26.7289, "source": "input", "event": "note_on", "note": 76, "name": "E5", "pc": 4, "velocity": 107, "hand": "right", "channel": 0}
{"t": 26.7289, "source": "input", "event": "note_on", "note": 40, "name": "E2", "pc": 4, "velocity": 85, "hand": "left", "channel": 0}
{"t": 26.7439, "source": "input", "event": "note_off", "note": 74, "name": "D5", "pc": 2, "velocity": 0, "hand": "right", "channel": 0}
{"t": 27.1341, "source": "input", "event": "note_on", "note": 74, "name": "D5", "pc": 2, "velocity": 92, "hand": "right", "channel": 0}
{"t": 27.1604, "source": "input", "event": "note_on", "note": 47, "name": "B2", "pc": 11, "velocity": 69, "hand": "left", "channel": 0}
{"t": 27.1797, "source": "input", "event": "note_off", "note": 76, "name": "E5", "pc": 4, "velocity": 0, "hand": "right", "channel": 0}
{"t": 27.3432, "source": "input", "event": "note_off", "note": 74, "name": "D5", "pc": 2, "velocity": 0, "hand": "right", "channel": 0}
{"t": 27.3625, "source": "input", "event": "note_on", "note": 72, "name": "C5", "pc": 0, "velocity": 92, "hand": "right", "channel": 0}
{"t": 27.5639, "source": "input", "event": "note_on", "note": 52, "name": "E3", "pc": 4, "velocity": 78, "hand": "left", "channel": 0}
{"t": 27.78, "source": "input", "event": "note_on", "note": 71, "name": "B4", "pc": 11, "velocity": 93, "hand": "right", "channel": 0}
{"t": 27.8024, "source": "input", "event": "note_off", "note": 72, "name": "C5", "pc": 0, "velocity": 0, "hand": "right", "channel": 0}
{"t": 28.1152, "source": "input", "event": "note_off", "note": 40, "name": "E2", "pc": 4, "velocity": 0, "hand": "left", "channel": 0}
{"t": 28.4029, "source": "input", "event": "note_on", "note": 41, "name": "F2", "pc": 5, "velocity": 74, "hand": "left", "channel": 0}
{"t": 28.414, "source": "input", "event": "note_on", "note": 69, "name": "A4", "pc": 9, "velocity": 86, "hand": "right", "channel": 0}
{"t": 28.4294, "source": "input", "event": "note_off", "note": 52, "name": "E3", "pc": 4, "velocity": 0, "hand": "left", "channel": 0}
{"t": 28.4408, "source": "input", "event": "note_off", "note": 71, "name": "B4", "pc": 11, "velocity": 0, "hand": "right", "channel": 0}
{"t": 28.4448, "source": "input", "event": "note_off", "note": 47, "name": "B2", "pc": 11, "velocity": 0, "hand": "left", "channel": 0}
{"t": 28.8768, "source": "input", "event": "note_on", "note": 48, "name": "C3", "pc": 0, "velocity": 39, "hand": "left", "channel": 0}
{"t": 29.2808, "source": "input", "event": "note_on", "note": 53, "name": "F3", "pc": 5, "velocity": 42, "hand": "left", "channel": 0}
{"t": 29.905, "source": "input", "event": "note_off", "note": 41, "name": "F2", "pc": 5, "velocity": 0, "hand": "left", "channel": 0}
{"t": 30.0848, "source": "input", "event": "note_off", "note": 53, "name": "F3", "pc": 5, "velocity": 0, "hand": "left", "channel": 0}
{"t": 30.0926, "source": "input", "event": "note_on", "note": 43, "name": "G2", "pc": 7, "velocity": 85, "hand": "left", "channel": 0}
{"t": 30.134, "source": "input", "event": "note_on", "note": 67, "name": "G4", "pc": 7, "velocity": 87, "hand": "right", "channel": 0}
{"t": 30.1454, "source": "input", "event": "note_off", "note": 48, "name": "C3", "pc": 0, "velocity": 0, "hand": "left", "channel": 0}
{"t": 30.1981, "source": "input", "event": "note_off", "note": 69, "name": "A4", "pc": 9, "velocity": 0, "hand": "right", "channel": 0}
{"t": 30.588, "source": "input", "event": "note_on", "note": 50, "name": "D3", "pc": 2, "velocity": 52, "hand": "left", "channel": 0}
{"t": 30.611, "source": "input", "event": "note_off", "note": 67, "name": "G4", "pc": 7, "velocity": 0, "hand": "right", "channel": 0}
{"t": 30.7336, "source": "input", "event": "note_on", "note": 67, "name": "G4", "pc": 7, "velocity": 82, "hand": "right", "channel": 0}
{"t": 30.9519, "source": "input", "event": "note_on", "note": 55, "name": "G3", "pc": 7, "velocity": 74, "hand": "left", "channel": 0}
{"t": 30.9561, "source": "input", "event": "note_on", "note": 69, "name": "A4", "pc": 9, "velocity": 83, "hand": "right", "channel": 0}
{"t": 30.9896, "source": "input", "event": "note_off", "note": 67, "name": "G4", "pc": 7, "velocity": 0, "hand": "right", "channel": 0}
{"t": 31.1492, "source": "input", "event": "note_on", "note": 71, "name": "B4", "pc": 11, "velocity": 85, "hand": "right", "channel": 0}
{"t": 31.1681, "source": "input", "event": "note_off", "note": 69, "name": "A4", "pc": 9, "velocity": 0, "hand": "right", "channel": 0}
{"t": 31.4102, "source": "input", "event": "note_off", "note": 55, "name": "G3", "pc": 7, "velocity": 0, "hand": "left", "channel": 0}
{"t": 31.4845, "source": "input", "event": "note_off", "note": 50, "name": "D3", "pc": 2, "velocity": 0, "hand": "left", "channel": 0}
{"t": 31.518, "source": "input", "event": "note_off", "note": 43, "name": "G2", "pc": 7, "velocity": 0, "hand": "left", "channel": 0}
{"t": 31.7604, "source": "input", "event": "note_off", "note": 71, "name": "B4", "pc": 11, "velocity": 0, "hand": "right", "channel": 0}
{"t": 31.7908, "source": "input", "event": "note_on", "note": 40, "name": "E2", "pc": 4, "velocity": 84, "hand": "left", "channel": 0}
{"t": 31.7948, "source": "input", "event": "note_on", "note": 62, "name": "D4", "pc": 2, "velocity": 57, "hand": "right", "channel": 0}
{"t": 31.9938, "source": "input", "event": "note_off", "note": 62, "name": "D4", "pc": 2, "velocity": 0, "hand": "right", "channel": 0}
{"t": 32.1132, "source": "input", "event": "note_on", "note": 64, "name": "E4", "pc": 4, "velocity": 83, "hand": "right", "channel": 0}
{"t": 32.1656, "source": "input", "event": "note_on", "note": 47, "name": "B2", "pc": 11, "velocity": 62, "hand": "left", "channel": 0}
{"t": 32.4427, "source": "input", "event": "note_on", "note": 67, "name": "G4", "pc": 7, "velocity": 78, "hand": "right", "channel": 0}
{"t": 32.4923, "source": "input", "event": "note_off", "note": 64, "name": "E4", "pc": 4, "velocity": 0, "hand": "right", "channel": 0}
{"t": 32.6467, "source": "input", "event": "note_on", "note": 69, "name": "A4", "pc": 9, "velocity": 76, "hand": "right", "channel": 0}
{"t": 32.673, "source": "input", "event": "note_on", "note": 52, "name": "E3", "pc": 4, "velocity": 61, "hand": "left", "channel": 0}
{"t": 32.6771, "source": "input", "event": "note_off", "note": 67, "name": "G4", "pc": 7, "velocity": 0, "hand": "right", "channel": 0}
{"t": 32.8282, "source": "input", "event": "note_on", "note": 71, "name": "B4", "pc": 11, "velocity": 84, "hand": "right", "channel": 0}
{"t": 32.862, "source": "input", "event": "note_off", "note": 69, "name": "A4", "pc": 9, "velocity": 0, "hand": "right", "channel": 0}
{"t": 33.1329, "source": "input", "event": "note_off", "note": 71, "name": "B4", "pc": 11, "velocity": 0, "hand": "right", "channel": 0}
{"t": 33.1408, "source": "input", "event": "note_on", "note": 74, "name": "D5", "pc": 2, "velocity": 19, "hand": "right", "channel": 0}
{"t": 33.3094, "source": "input", "event": "note_off", "note": 40, "name": "E2", "pc": 4, "velocity": 0, "hand": "left", "channel": 0}
{"t": 33.4328, "source": "input", "event": "note_off", "note": 47, "name": "B2", "pc": 11, "velocity": 0, "hand": "left", "channel": 0}
{"t": 33.482, "source": "input", "event": "note_off", "note": 74, "name": "D5", "pc": 2, "velocity": 0, "hand": "right", "channel": 0}
{"t": 33.5448, "source": "input", "event": "note_on", "note": 72, "name": "C5", "pc": 0, "velocity": 75, "hand": "right", "channel": 0}
{"t": 33.5672, "source": "input", "event": "note_on", "note": 45, "name": "A2", "pc": 9, "velocity": 69, "hand": "left", "channel": 0}
{"t": 33.6005, "source": "input", "event": "note_off", "note": 52, "name": "E3", "pc": 4, "velocity": 0, "hand": "left", "channel": 0}
{"t": 33.9644, "source": "input", "event": "note_on", "note": 71, "name": "B4", "pc": 11, "velocity": 84, "hand": "right", "channel": 0}
{"t": 33.9644, "source": "input", "event": "note_off", "note": 72, "name": "C5", "pc": 0, "velocity": 0, "hand": "right", "channel": 0}
{"t": 33.9687, "source": "input", "event": "note_on", "note": 52, "name": "E3", "pc": 4, "velocity": 71, "hand": "left", "channel": 0}
{"t": 34.1714, "source": "input", "event": "note_on", "note": 72, "name": "C5", "pc": 0, "velocity": 98, "hand": "right", "channel": 0}
{"t": 34.1794, "source": "input", "event": "note_off", "note": 71, "name": "B4", "pc": 11, "velocity": 0, "hand": "right", "channel": 0}
{"t": 34.4186, "source": "input", "event": "note_on", "note": 57, "name": "A3", "pc": 9, "velocity": 79, "hand": "left", "channel": 0}
{"t": 34.6218, "source": "input", "event": "note_on", "note": 74, "name": "D5", "pc": 2, "velocity": 98, "hand": "right", "channel": 0}
{"t": 34.6637, "source": "input", "event": "note_off", "note": 72, "name": "C5", "pc": 0, "velocity": 0, "hand": "right", "channel": 0}
{"t": 34.8356, "source": "input", "event": "note_on", "note": 76, "name": "E5", "pc": 4, "velocity": 98, "hand": "right", "channel": 0}
{"t": 34.862, "source": "input", "event": "note_off", "note": 57, "name": "A3", "pc": 9, "velocity": 0, "hand": "left", "channel": 0}
{"t": 34.8806, "source": "input", "event": "note_off", "note": 74, "name": "D5", "pc": 2, "velocity": 0, "hand": "right", "channel": 0}
{"t": 34.9295, "source": "input", "event": "note_off", "note": 52, "name": "E3", "pc": 4, "velocity": 0, "hand": "left", "channel": 0}
{"t": 34.982, "source": "input", "event": "note_off", "note": 45, "name": "A2", "pc": 9, "velocity": 0, "hand": "left", "channel": 0}
{"t": 35.2277, "source": "input", "event": "note_on", "note": 38, "name": "D2", "pc": 2, "velocity": 85, "hand": "left", "channel": 0}
{"t": 35.2318, "source": "input", "event": "note_off", "note": 76, "name": "E5", "pc": 4, "velocity": 0, "hand": "right", "channel": 0}
{"t": 35.2318, "source": "input", "event": "note_on", "note": 74, "name": "D5", "pc": 2, "velocity": 87, "hand": "right", "channel": 0}
{"t": 35.7273, "source": "input", "event": "note_on", "note": 45, "name": "A2", "pc": 9, "velocity": 38, "hand": "left", "channel": 0}
{"t": 36.1325, "source": "input", "event": "note_on", "note": 50, "name": "D3", "pc": 2, "velocity": 55, "hand": "left", "channel": 0}
{"t": 36.3192, "source": "input", "event": "note_on", "note": 71, "name": "B4", "pc": 11, "velocity": 72, "hand": "right", "channel": 0}
{"t": 36.3605, "source": "input", "event": "note_off", "note": 74, "name": "D5", "pc": 2, "velocity": 0, "hand": "right", "channel": 0}
{"t": 36.6913, "source": "input", "event": "note_off", "note": 38, "name": "D2", "pc": 2, "velocity": 0, "hand": "left", "channel": 0}
{"t": 36.7187, "source": "input", "event": "note_on", "note": 69, "name": "A4", "pc": 9, "velocity": 75, "hand": "right", "channel": 0}
{"t": 36.7751, "source": "input", "event": "note_off", "note": 71, "name": "B4", "pc": 11, "velocity": 0, "hand": "right", "channel": 0}
{"t": 36.9447, "source": "input", "event": "note_on", "note": 40, "name": "E2", "pc": 4, "velocity": 66, "hand": "left", "channel": 0}
{"t": 36.952, "source": "input", "event": "note_on", "note": 71, "name": "B4", "pc": 11, "velocity": 82, "hand": "right", "channel": 0}
{"t": 36.9786, "source": "input", "event": "note_off", "note": 50, "name": "D3", "pc": 2, "velocity": 0, "hand": "left", "channel": 0}
{"t": 36.9977, "source": "input", "event": "note_off", "note": 69, "name": "A4", "pc": 9, "velocity": 0, "hand": "right", "channel": 0}
{"t": 36.9977, "source": "input", "event": "note_off", "note": 45, "name": "A2", "pc": 9, "velocity": 0, "hand": "left", "channel": 0}
{"t": 37.3785, "source": "input", "event": "note_on", "note": 47, "name": "B2", "pc": 11, "velocity": 60, "hand": "left", "channel": 0}
{"t": 37.5881, "source": "input", "event": "note_on", "note": 69, "name": "A4", "pc": 9, "velocity": 82, "hand": "right", "channel": 0}
{"t": 37.6036, "source": "input", "event": "note_off", "note": 71, "name": "B4", "pc": 11, "velocity": 0, "hand": "right", "channel": 0}
{"t": 37.8264, "source": "input", "event": "note_on", "note": 52, "name": "E3", "pc": 4, "velocity": 44, "hand": "left", "channel": 0}
{"t": 37.9898, "source": "input", "event": "note_on", "note": 67, "name": "G4", "pc": 7, "velocity": 76, "hand": "right", "channel": 0}
{"t": 38.0349, "source": "input", "event": "note_off", "note": 69, "name": "A4", "pc": 9, "velocity": 0, "hand": "right", "channel": 0}
{"t": 38.2202, "source": "input", "event": "note_off", "note": 40, "name": "E2", "pc": 4, "velocity": 0, "hand": "left", "channel": 0}
{"t": 38.3863, "source": "input", "event": "note_off", "note": 47, "name": "B2", "pc": 11, "velocity": 0, "hand": "left", "channel": 0}
{"t": 38.4089, "source": "input", "event": "note_on", "note": 69, "name": "A4", "pc": 9, "velocity": 82, "hand": "right", "channel": 0}
{"t": 38.4735, "source": "input", "event": "note_off", "note": 67, "name": "G4", "pc": 7, "velocity": 0, "hand": "right", "channel": 0}
{"t": 38.5219, "source": "input", "event": "note_off", "note": 69, "name": "A4", "pc": 9, "velocity": 0, "hand": "right", "channel": 0}
{"t": 38.5789, "source": "input", "event": "note_off", "note": 52, "name": "E3", "pc": 4, "velocity": 0, "hand": "left", "channel": 0}
{"t": 38.6434, "source": "input", "event": "note_on", "note": 45, "name": "A2", "pc": 9, "velocity": 72, "hand": "left", "channel": 0}
{"t": 38.6475, "source": "input", "event": "note_on", "note": 69, "name": "A4", "pc": 9, "velocity": 85, "hand": "right", "channel": 0}
{"t": 39.0564, "source": "input", "event": "note_on", "note": 52, "name": "E3", "pc": 4, "velocity": 69, "hand": "left", "channel": 0}
{"t": 39.4377, "source": "input", "event": "note_off", "note": 69, "name": "A4", "pc": 9, "velocity": 0, "hand": "right", "channel": 0}
{"t": 39.472, "source": "input", "event": "note_on", "note": 57, "name": "A3", "pc": 9, "velocity": 66, "hand": "left", "channel": 0}
{"t": 39.6888, "source": "input", "event": "note_on", "note": 59, "name": "B3", "pc": 11, "velocity": 81, "hand": "left", "channel": 0}
{"t": 39.8929, "source": "input", "event": "note_on", "note": 60, "name": "C4", "pc": 0, "velocity": 64, "hand": "right", "channel": 0}
{"t": 39.9046, "source": "input", "event": "note_off", "note": 59, "name": "B3", "pc": 11, "velocity": 0, "hand": "left", "channel": 0}
{"t": 39.9911, "source": "input", "event": "note_off", "note": 57, "name": "A3", "pc": 9, "velocity": 0, "hand": "left", "channel": 0}
{"t": 40.0543, "source": "input", "event": "note_off", "note": 52, "name": "E3", "pc": 4, "velocity": 0, "hand": "left", "channel": 0}
{"t": 40.069, "source": "input", "event": "note_off", "note": 45, "name": "A2", "pc": 9, "velocity": 0, "hand": "left", "channel": 0}
{"t": 40.1402, "source": "input", "event": "note_on", "note": 59, "name": "B3", "pc": 11, "velocity": 69, "hand": "left", "channel": 0}
{"t": 40.1962, "source": "input", "event": "note_off", "note": 60, "name": "C4", "pc": 0, "velocity": 0, "hand": "right", "channel": 0}
{"t": 40.3005, "source": "input", "event": "note_off", "note": 59, "name": "B3", "pc": 11, "velocity": 0, "hand": "left", "channel": 0}
{"t": 40.3501, "source": "input", "event": "note_on", "note": 57, "name": "A3", "pc": 9, "velocity": 75, "hand": "left", "channel": 0}
{"t": 40.3501, "source": "input", "event": "note_on", "note": 45, "name": "A2", "pc": 9, "velocity": 56, "hand": "left", "channel": 0}
{"t": 40.3652, "source": "input", "event": "note_on", "note": 52, "name": "E3", "pc": 4, "velocity": 20, "hand": "left", "channel": 0}
{"t": 41.8036, "source": "input", "event": "note_off", "note": 57, "name": "A3", "pc": 9, "velocity": 0, "hand": "left", "channel": 0}
{"t": 41.8187, "source": "input", "event": "note_off", "note": 52, "name": "E3", "pc": 4, "velocity": 0, "hand": "left", "channel": 0}
{"t": 41.8459, "source": "input", "event": "note_off", "note": 45, "name": "A2", "pc": 9, "velocity": 0, "hand": "left", "channel": 0}
